<svg width="205" height="343" viewBox="0 0 205 343" fill="none" xmlns="http://www.w3.org/2000/svg">
<path d="M29.7948 241.158C-10.1083 264.196 -9.9048 301.665 30.2485 324.848C70.4025 348.031 135.302 348.148 175.205 325.11C215.108 302.072 214.905 264.602 174.751 241.42C134.597 218.237 69.6979 218.119 29.7948 241.158Z" fill="#2D69E0"/>
<path d="M36.0507 244.77C-0.418025 265.825 -0.231977 300.071 36.4655 321.258C73.1638 342.446 132.478 342.553 168.947 321.497C205.417 300.442 205.231 266.197 168.532 245.009C131.835 223.822 72.5194 223.714 36.0507 244.77Z" fill="#30B2F0"/>
<path d="M39.3685 244.357C4.42299 264.532 4.60112 297.347 39.7659 317.649C74.9315 337.952 131.767 338.054 166.712 317.879C201.658 297.703 201.48 264.889 166.315 244.586C131.15 224.284 74.3132 224.181 39.3685 244.357Z" fill="#266D96"/>
<path d="M186.551 257.013L181.42 256.995C177.321 250.508 170.772 244.414 161.746 239.203C128.82 220.193 75.6018 220.098 42.881 238.988C34.0338 244.096 27.6131 250.073 23.5715 256.446L18.4492 256.429V277.595L18.4548 277.6C18.4579 290.067 26.7264 302.562 43.2531 312.103C76.1797 331.113 129.398 331.208 162.118 312.318C178.415 302.908 186.549 290.564 186.545 278.193L186.55 278.186V257.013H186.551Z" fill="url(#paint0_linear_58_607)"/>
<path d="M42.8811 222.337C10.1603 241.228 10.3273 271.954 43.2532 290.963C76.1798 309.973 129.398 310.069 162.118 291.178C194.839 272.286 194.673 241.561 161.746 222.551C128.821 203.542 75.6019 203.445 42.8811 222.337ZM151.493 285.044C124.604 300.568 80.8706 300.489 53.812 284.867C26.7542 269.245 26.6165 243.996 53.5064 228.471C80.3956 212.947 124.129 213.026 151.187 228.648C178.245 244.271 178.382 269.519 151.493 285.044Z" fill="#FFE66F"/>
<path d="M53.5071 228.471C26.6179 243.996 26.7556 269.246 53.8126 284.867C80.8713 300.489 124.604 300.568 151.494 285.044C178.383 269.519 178.246 244.27 151.187 228.648C124.13 213.026 80.3962 212.947 53.5071 228.471ZM147.478 282.726C122.793 296.978 82.6438 296.905 57.8036 282.563C32.9633 268.222 32.8374 245.042 57.5233 230.79C82.2084 216.538 122.357 216.61 147.197 230.952C172.038 245.293 172.163 268.473 147.478 282.726Z" fill="url(#paint1_linear_58_607)"/>
<path d="M57.522 230.79C32.8369 245.042 32.962 268.222 57.8023 282.563C82.6426 296.905 122.792 296.978 147.477 282.726C172.162 268.473 172.036 245.293 147.196 230.952C122.356 216.61 82.2071 216.538 57.522 230.79Z" fill="#FFE66F"/>
<path d="M140.731 258.198L148.496 263.854L116.592 282.274L97.5016 268.157L93.6682 274.71L87.3315 270.019C86.4599 269.423 86.2651 268.78 86.7512 268.09L89.8554 262.525L64.7539 244.002L75.2676 237.932L95.8723 253.157L102.484 241.226L108.697 245.845C109.597 246.521 109.805 247.219 109.32 247.938L103.556 258.859L119.377 270.525L140.731 258.198Z" fill="url(#paint2_linear_58_607)"/>
<path d="M113.608 195.357C113.106 196.429 113.562 197.684 113.403 198.232C113.243 198.78 113.221 199.852 112.901 200.263C112.582 200.673 112.422 201.106 111.943 201.084C111.464 201.061 111.122 200.878 111.122 200.878C111.122 200.878 110.848 201.357 110.529 201.38C110.209 201.403 109.822 201.312 109.822 201.312L108.499 201.494L107.199 200.673L107.359 197.274L108.99 195.357H113.608Z" fill="#FFA698"/>
<path d="M110.402 195.699C110.801 196.087 110.899 196.273 110.645 196.899C110.391 197.524 109.547 198.323 109.547 198.323C109.547 198.323 109.113 199.509 108.611 199.897C108.11 200.285 107.812 200.355 107.517 200.262C107.22 200.168 107.699 198.163 107.699 198.163L108.612 196.201L109.699 194.946L110.402 195.699Z" fill="#FFA698"/>
<path d="M107.053 158.386C108.878 158.022 112.556 157.639 113.743 160.925C114.489 162.989 116.666 181.76 116.331 183.129C115.997 184.497 109.944 184.132 109.335 181.608C108.726 179.083 107.053 158.386 107.053 158.386Z" fill="#FFFAFB"/>
<path d="M115.357 179.722C115.631 180.726 116.391 181.091 116.33 183.129C116.269 185.166 116.395 186.323 115.845 188.878C115.296 191.433 114.079 195.6 113.623 196.543C113.167 197.486 111.22 197.182 110.276 196.756C109.333 196.33 108.877 195.752 108.968 194.779C109.059 193.805 109.865 186.952 109.705 182.349C111.463 179.996 115.357 179.722 115.357 179.722Z" fill="#FFFAFB"/>
<path d="M91.9716 258.826C97.3171 261.912 106.012 261.897 111.391 258.791C116.77 255.685 116.798 250.666 111.452 247.58C106.107 244.494 97.4121 244.509 92.0333 247.615C86.6538 250.72 86.626 255.74 91.9716 258.826Z" fill="#CCCCCC"/>
<path d="M102.642 245.73C102.642 245.73 101.03 245.578 100.421 246.186C99.8134 246.795 100.087 247.592 100.087 247.592C100.087 247.592 100.482 248.924 102.489 249.989C104.497 251.054 105.977 251.236 106.438 251.206C106.9 251.176 107.781 251.601 107.781 251.601L108.482 252.544C108.482 252.544 109.547 253.852 111.189 254.491C112.832 255.129 114.87 254.278 115.266 253.761C115.661 253.244 115.266 251.662 115.266 251.662C115.266 251.662 114.079 250.171 113.167 249.928C112.254 249.685 102.642 245.73 102.642 245.73Z" fill="#192142"/>
<path d="M100.027 254.278C100.058 254.46 100.787 255.586 100.787 255.586C100.787 255.586 100.908 257.655 100.787 257.776C100.666 257.898 99.8748 259.297 97.472 258.871C95.0692 258.445 93.9734 257.228 93.9734 257.228L93.8824 256.65C93.8824 256.65 92.3916 255.707 90.8407 255.585C89.289 255.463 87.799 254.642 86.7342 253.471C85.6693 252.3 85.7913 251.874 85.7604 251.54C85.7303 251.205 85.9734 249.988 85.9734 249.988C85.9734 249.988 87.0073 249.136 87.9201 249.197C88.833 249.259 100.027 254.278 100.027 254.278Z" fill="#192142"/>
<path d="M113.959 246.126C113.959 246.126 114.963 250.841 114.75 251.632C114.537 252.423 113.502 253.7 111.252 253.001C109.001 252.301 109.457 250.963 107.449 250.598C105.441 250.233 102.917 249.29 101.822 248.651C100.727 248.012 100.788 246.917 100.788 246.917C100.788 246.917 100.818 245.822 101.396 245.335C101.974 244.848 104.164 244.939 104.62 244.939C105.077 244.939 106.841 245.548 107.237 245.122C107.632 244.696 108.332 243.601 108.332 243.601L113.959 246.126Z" fill="#202A54"/>
<path d="M94.4306 247.373C93.9437 248.194 93.8226 249.016 92.4537 248.833C91.0849 248.65 88.8341 248.498 87.7994 248.924C86.7654 249.35 86.3086 250.415 86.3086 251.114C86.3086 251.813 86.5825 252.057 87.4344 253C88.2862 253.943 90.142 255.038 92.4229 255.311C94.7045 255.585 96.1035 257.228 97.7161 257.228C99.328 257.228 99.7255 256.65 100.227 255.981C100.728 255.312 100.393 252.118 100.393 252.118L97.5641 248.163L94.4306 247.373Z" fill="#202A54"/>
<path d="M107.57 187.813C107.565 189.755 109.274 195.081 109.456 200.299C109.639 205.517 108.452 217.32 108.27 218.658C108.087 219.996 101.152 221.76 98.992 218.262C96.8323 214.765 99.3879 188.443 99.3879 188.443L107.57 187.813Z" fill="#2C3873"/>
<path d="M109.196 205.285L109.472 204.655C108.232 204.112 107.06 203.408 106.963 203.148C106.966 202.242 106.514 197.664 106.4 196.523C106.985 196.267 108.501 195.59 109.035 195.233L108.654 194.66C108.05 195.063 105.917 195.983 105.896 195.992L105.664 196.092L105.689 196.343C105.695 196.401 106.279 202.167 106.279 203.179C106.279 203.864 107.866 204.702 109.196 205.285Z" fill="#384994"/>
<path d="M98.748 217.715C99.2049 219.995 106.171 245.699 106.87 246.247C107.57 246.795 110.612 247.677 112.163 247.586C113.714 247.495 113.927 247.069 114.109 246.765C114.291 246.461 113.227 234.02 111.646 227.236C110.064 220.453 107.478 215.647 107.174 215.069C106.871 214.491 98.748 217.715 98.748 217.715Z" fill="#2C3873"/>
<path d="M103.615 190.703C103.889 191.159 105.593 196.117 105.44 201.015C105.288 205.912 104.923 206.033 104.101 207.402C103.279 208.771 100.664 209.775 100.269 211.113C99.8727 212.452 99.8427 228.209 99.5996 229.455C99.3566 230.703 89.9567 230.55 89.0439 227.813C88.1311 225.075 86.9538 206.214 87.3149 200.298C87.6759 194.383 88.9228 188.938 88.9228 188.938L103.615 190.703Z" fill="#2F3D7B"/>
<path d="M98.5979 225.32C98.9019 226.111 99.4798 226.658 99.6018 229.456C99.7237 232.255 99.9367 234.293 100.089 236.726C100.241 239.16 100.302 251.784 100.089 252.575C99.8757 253.366 96.8641 253.791 94.6133 253.183C92.3625 252.575 91.9057 251.419 91.9057 251.419C91.9057 251.419 88.9178 227.333 88.9004 227.252C88.8838 227.171 98.5979 225.32 98.5979 225.32Z" fill="#2F3D7B"/>
<path d="M92.9582 252.73L93.6399 252.634C93.5979 252.334 89.4114 222.578 89.2436 218.431C88.8992 209.91 89.299 201.503 90.3678 194.759C90.4058 194.52 90.424 194.383 90.424 194.353H89.736H90.0804L89.7368 194.334C89.7336 194.373 89.7154 194.479 89.6885 194.652C88.6134 201.439 88.2104 209.893 88.5564 218.459C88.725 222.64 92.7856 251.503 92.9582 252.73Z" fill="#384994"/>
<path d="M107.576 188.009C107.576 188.009 108.604 191.969 108.357 192.403C108.11 192.836 102.359 196.133 95.4881 195.672C88.617 195.211 87.9219 193.813 87.9219 193.813C87.9219 193.813 88.4349 188.103 88.9012 187.488C89.3667 186.875 107.576 188.009 107.576 188.009Z" fill="#202A54"/>
<path d="M106.786 186.795L105.305 187.025L106.487 194.637L107.969 194.407L106.786 186.795Z" fill="#2C3873"/>
<path d="M102.101 189.655L100.609 189.811L101.411 197.472L102.902 197.316L102.101 189.655Z" fill="#2F3D7B"/>
<path d="M94.3098 189.683L94.0918 197.383L95.5899 197.426L95.8079 189.726L94.3098 189.683Z" fill="#2F3D7B"/>
<path d="M89.155 188.297L88.0195 195.916L89.5019 196.137L90.6373 188.518L89.155 188.297Z" fill="#2F3D7B"/>
<path d="M98.2775 160.817C95.2659 162.095 95.0379 162.734 92.2551 163.144C89.4715 163.555 88.2855 164.102 87.8746 164.787C87.4637 165.471 87.1447 172.087 87.4186 177.608C87.6925 183.129 87.6007 190.111 88.4225 191.525C89.2435 192.939 98.1778 193.781 103.13 192.216C106.739 191.075 107.084 190.658 108.316 188.833C109.548 187.008 111.51 178.749 112.606 173.867C113.701 168.984 113.836 162.719 112.49 160.223C111.012 157.482 104.248 158.514 103.29 158.879C102.331 159.244 98.2775 160.817 98.2775 160.817Z" fill="#F5F5F5"/>
<path d="M103.452 159.182C102.931 158.306 103.689 154.944 104.234 153.974C104.778 153.003 99.0964 144.646 99.0964 144.646C99.0964 144.646 94.693 141.852 93.5332 144.457C92.3734 147.06 92.1129 148.221 92.1604 148.884C92.2079 149.546 91.1898 150.115 91.474 150.873C91.7582 151.63 92.1366 152.198 92.1366 152.198C92.1366 152.198 91.7812 156.293 92.0654 156.862C92.3496 157.43 94.0304 157.856 94.9297 158.282C95.8291 158.708 95.9716 160.199 95.9954 160.649C96.0183 161.1 103.452 159.182 103.452 159.182Z" fill="#FFA698"/>
<path d="M101.227 157.454C100.185 157.36 99.049 156.839 98.7886 154.945C98.5281 153.05 97.4387 152.127 96.6581 151.844C95.8767 151.56 94.7644 152.412 94.7644 152.412L93.6987 151.786C93.6987 151.786 94.078 150.519 93.7937 149.737C93.5095 148.956 93.3203 147.631 93.3203 147.631C93.3203 147.631 94.5514 145.121 94.3147 144.766C94.078 144.411 93.6283 143.511 93.6283 143.511C93.6283 143.511 94.5039 139.558 99.3815 140.22C104.258 140.883 105.774 142.967 106.105 143.653C107.525 144.789 108.496 146.376 108.07 149.359C107.644 152.342 103.787 156.681 103.36 157.151C102.932 157.62 101.227 157.454 101.227 157.454Z" fill="#202459"/>
<path d="M96.2553 154.92C96.9893 153.453 96.8238 152.837 96.5158 152.198C96.2078 151.559 95.4312 151.724 95.394 152.032C95.356 152.34 95.451 154.14 95.4035 154.707C95.356 155.276 95.4502 156.104 96.2553 154.92Z" fill="#FFA698"/>
<path d="M88.1685 164.437C89.2586 164.665 89.9886 167.828 90.0195 169.775C90.0495 171.722 89.7083 174.855 88.5287 175.311C87.3491 175.768 72.3765 173.091 71.4637 172.209C70.5509 171.327 73.5925 165.304 75.5393 165.547C77.4861 165.79 82.8704 166.003 84.7563 165.577C86.6429 165.152 88.1685 164.437 88.1685 164.437Z" fill="#FFFAFB"/>
<path d="M75.0521 167.828C76.086 166.216 75.721 165.973 75.5389 165.273C75.3569 164.574 70.7025 153.806 70.3375 152.771C69.9725 151.737 65.3181 153.167 65.562 154.627C65.805 156.087 67.9648 169.562 71.4633 172.209C74.6261 170.901 75.0521 167.828 75.0521 167.828Z" fill="#FFFAFB"/>
<path d="M70.1555 153.045C70.1206 152.539 69.7604 151.22 69.7604 151.22C69.7604 151.22 69.9964 147.95 69.9584 147.334C69.9204 146.718 69.1904 144.894 69.1904 144.894C69.1904 144.894 68.4145 143.571 68.2324 143.388C68.0504 143.205 67.6846 143.342 67.5936 143.662C67.5025 143.981 67.8896 145.282 67.8896 145.282L67.9807 146.011C67.9807 146.011 66.8399 143.137 66.6118 142.886C66.3838 142.635 65.0601 140.559 64.673 140.513C64.285 140.467 64.057 140.832 64.08 141.083C64.103 141.334 65.3119 143.639 65.3119 143.639L65.8368 145.601L65.3348 145.464C65.3348 145.464 64.1259 143.525 63.829 143.388C63.5321 143.251 62.8711 143.776 62.8022 143.936C62.7333 144.096 63.0532 145.122 63.0532 145.122C63.0532 145.122 62.4372 145.373 62.2773 145.829C62.1174 146.285 62.5742 147.152 62.5742 147.152C62.5742 147.152 62.0723 147.471 62.0723 147.813C62.0723 148.155 62.4831 148.771 63.1442 149.775C63.8061 150.779 65.22 151.897 65.4259 152.239C65.6309 152.581 66.2928 154.475 66.2928 154.475L70.1555 153.045Z" fill="#FFA698"/>
<path d="M101.394 158.535C102.372 158.345 103.382 157.683 103.856 157.683C104.329 157.683 105.055 159.703 105.087 159.956C105.119 160.208 102.941 160.998 100.478 161.471C98.0162 161.944 95.4677 162.764 95.2698 162.724C95.0719 162.685 95.2065 160.769 95.2698 160.204C95.3331 159.64 99.279 158.755 101.394 158.535Z" fill="#FFFAFB"/>
<path d="M98.2746 208.783C96.3674 207.945 94.058 206.81 93.8847 206.161C93.7129 205.517 93.5363 199.727 93.5173 199.068L93.5078 198.746L93.8277 198.716C93.8894 198.71 100.001 198.104 103.125 196.845L103.55 196.673L103.596 197.13C103.656 197.741 104.178 203.126 103.917 204.041C103.656 204.96 99.7947 207.873 98.6166 208.745L98.4567 208.864L98.2746 208.783ZM94.2148 199.367C94.2908 201.839 94.4404 205.575 94.541 205.962C94.7262 206.299 96.635 207.299 98.3688 208.071C100.644 206.377 103.119 204.317 103.256 203.851C103.414 203.296 103.17 199.925 102.955 197.645C100.071 198.683 95.4744 199.232 94.2148 199.367Z" fill="#384994"/>
<defs>
<linearGradient id="paint0_linear_58_607" x1="18.4495" y1="275.653" x2="186.551" y2="275.653" gradientUnits="userSpaceOnUse">
<stop offset="0.073" stop-color="#F7AE14"/>
<stop offset="0.927" stop-color="#FBCC49"/>
</linearGradient>
<linearGradient id="paint1_linear_58_607" x1="102.501" y1="296.636" x2="102.501" y2="216.88" gradientUnits="userSpaceOnUse">
<stop offset="0.073" stop-color="#F7AE14"/>
<stop offset="0.927" stop-color="#FBCC49"/>
</linearGradient>
<linearGradient id="paint2_linear_58_607" x1="106.625" y1="282.274" x2="106.625" y2="237.933" gradientUnits="userSpaceOnUse">
<stop offset="0.073" stop-color="#F7AE14"/>
<stop offset="0.927" stop-color="#FBCC49"/>
</linearGradient>
</defs>
</svg>
