<svg width="82" height="113" viewBox="0 0 82 113" fill="none" xmlns="http://www.w3.org/2000/svg">
<path opacity="0.33" d="M77.9853 69.5899L3.6798 112.49C1.64752 113.664 0 112.418 0 109.708V50.3739C0 47.6639 1.64752 44.5153 3.6798 43.342L77.9853 0.441575C80.0175 -0.731719 81.6651 0.513619 81.6651 3.2236V62.5581C81.6651 65.2681 80.0175 68.4166 77.9853 69.5899Z" fill="#409EFF"/>
<path opacity="0.63" d="M24.0036 54.5303L5.96398 64.945C5.08441 65.4533 4.37109 64.9142 4.37109 63.7409V49.3288C4.37109 48.1555 5.08441 46.793 5.96398 46.2847L24.0036 35.87C24.8831 35.3617 25.5965 35.9016 25.5965 37.0741V51.4862C25.5965 52.6595 24.8839 54.022 24.0036 54.5303Z" fill="#2486EB"/>
<path opacity="0.63" d="M22.0628 42.0959L7.90488 50.2702C7.48845 50.5108 7.15039 50.2551 7.15039 49.6993V49.6297C7.15039 49.0739 7.48845 48.4287 7.90488 48.188L22.0628 40.0137C22.4792 39.7731 22.8173 40.0288 22.8173 40.5845V40.6542C22.8173 41.21 22.48 41.8552 22.0628 42.0959Z" fill="#45A0FF"/>
<path opacity="0.63" d="M22.0628 47.3614L7.90488 55.5357C7.48845 55.7764 7.15039 55.5207 7.15039 54.9649V54.8952C7.15039 54.3395 7.48845 53.6942 7.90488 53.4536L22.0628 45.2793C22.4792 45.0386 22.8173 45.2943 22.8173 45.8501V45.9198C22.8173 46.4747 22.48 47.1208 22.0628 47.3614Z" fill="#45A0FF"/>
<path opacity="0.63" d="M17.9555 54.9981L7.90488 60.8013C7.48845 61.0419 7.15039 60.7862 7.15039 60.2305V60.1608C7.15039 59.605 7.48845 58.9598 7.90488 58.7191L17.9555 52.916C18.3727 52.6753 18.71 52.931 18.71 53.4868V53.5565C18.71 54.1114 18.3727 54.7575 17.9555 54.9981Z" fill="#45A0FF"/>
<path opacity="0.63" d="M49.8524 39.606L31.8136 50.0208C30.934 50.529 30.2207 49.9899 30.2207 48.8166V34.4046C30.2207 33.2313 30.934 31.8688 31.8136 31.3605L49.8524 20.9457C50.732 20.4374 51.4453 20.9766 51.4453 22.1499V36.5619C51.4461 37.7352 50.7328 39.0977 49.8524 39.606Z" fill="#2486EB"/>
<path opacity="0.63" d="M75.702 24.6825L57.6632 35.0973C56.7836 35.6056 56.0703 35.0656 56.0703 33.8931V19.4803C56.0703 18.307 56.7836 16.9445 57.6632 16.4362L75.702 6.02146C76.5816 5.51319 77.2949 6.05234 77.2949 7.22563V21.6377C77.2957 22.8118 76.5824 24.1743 75.702 24.6825Z" fill="#2486EB"/>
<g opacity="0.63">
<path d="M73.762 12.2482L59.6041 20.4224C59.1877 20.6631 58.8496 20.4074 58.8496 19.8516V19.7819C58.8496 19.2262 59.1877 18.5809 59.6041 18.3403L73.762 10.166C74.1784 9.92532 74.5165 10.181 74.5165 10.736V10.8057C74.5173 11.3615 74.1792 12.0075 73.762 12.2482Z" fill="#45A0FF"/>
<path d="M73.762 17.5137L59.6041 25.688C59.1877 25.9286 58.8496 25.6729 58.8496 25.1172V25.0475C58.8496 24.4917 59.1877 23.8465 59.6041 23.6058L73.762 15.4315C74.1784 15.1909 74.5165 15.4466 74.5165 16.0024V16.072C74.5173 16.627 74.1792 17.273 73.762 17.5137Z" fill="#45A0FF"/>
<path d="M69.6547 25.1496L59.6041 30.9528C59.1877 31.1934 58.8496 30.9377 58.8496 30.3819V30.3123C58.8496 29.7565 59.1877 29.1113 59.6041 28.8706L69.6547 23.0675C70.0711 22.8268 70.4092 23.0825 70.4092 23.6383V23.7079C70.41 24.2637 70.0719 24.909 69.6547 25.1496Z" fill="#45A0FF"/>
</g>
<path opacity="0.63" d="M47.9124 37.7027L33.7545 45.877C33.3381 46.1177 33 45.862 33 45.3062V34.7054C33 34.1496 33.3381 33.5044 33.7545 33.2637L47.9124 25.0894C48.3288 24.8488 48.6669 25.1045 48.6669 25.6603V36.2611C48.6669 36.816 48.3296 37.4621 47.9124 37.7027Z" fill="#45A0FF"/>
<path opacity="0.91" d="M20.6775 83.0757L9.94531 89.2723V104.611L20.6775 98.4148V83.0757Z" fill="#3D9DFF"/>
<path opacity="0.91" d="M33.8072 64.6101L23.0742 70.8067V97.0317L33.8072 90.8351V64.6101Z" fill="#3A95F3"/>
<path opacity="0.91" d="M46.9354 64.9474L36.2031 71.144V89.452L46.9354 83.2562V64.9474Z" fill="#3D9DFF"/>
<path opacity="0.91" d="M60.0623 47.7613L49.3301 53.9571V81.8731L60.0623 75.6765V47.7613Z" fill="#3A95F3"/>
<path opacity="0.91" d="M73.1912 30.161L62.459 36.3576V74.2934L73.1912 68.0968V30.161Z" fill="#3D9DFF"/>
<path d="M10.6643 101.073L9.22656 99.9127L27.9209 76.7492L41.0852 73.6972L53.9851 59.8742L70.9757 36.9712L72.4594 38.0717L55.3722 61.0966L42.0511 75.3693L28.9588 78.4054L10.6643 101.073Z" fill="#45A0FF"/>
<path opacity="0.63" d="M11.9345 99.3442C11.9345 100.605 11.0447 102.14 9.94578 102.774C8.8477 103.408 7.95703 102.901 7.95703 101.64C7.95703 100.38 8.8469 98.8447 9.94578 98.2105C11.0439 97.5764 11.9345 98.0839 11.9345 99.3442Z" fill="#45A0FF"/>
<path d="M10.8561 99.9665C10.8561 100.544 10.4483 101.247 9.94561 101.536C9.44289 101.827 9.03516 101.594 9.03516 101.017C9.03516 100.44 9.44289 99.7369 9.94561 99.4471C10.4483 99.1574 10.8561 99.3901 10.8561 99.9665Z" fill="#FFD4FB"/>
<path opacity="0.63" d="M30.4279 76.4293C30.4279 77.6897 29.538 79.2248 28.4391 79.859C27.341 80.4931 26.4512 79.9856 26.4512 78.7253C26.4512 77.4649 27.341 75.9298 28.4391 75.2956C29.538 74.6615 30.4279 75.169 30.4279 76.4293Z" fill="#45A0FF"/>
<path d="M29.3502 77.0516C29.3502 77.6288 28.9425 78.3318 28.4398 78.6216C27.937 78.9121 27.5293 78.6794 27.5293 78.1022C27.5293 77.5251 27.937 76.822 28.4398 76.5323C28.9433 76.2425 29.3502 76.4745 29.3502 77.0516Z" fill="#FFD4FB"/>
<path opacity="0.63" d="M43.5568 73.3853C43.5568 74.6457 42.6661 76.1808 41.568 76.8149C40.4699 77.4491 39.5801 76.9416 39.5801 75.6812C39.5801 74.4208 40.4699 72.8857 41.568 72.2516C42.6669 71.6174 43.5568 72.1257 43.5568 73.3853Z" fill="#45A0FF"/>
<path d="M42.4791 74.0076C42.4791 74.5847 42.0714 75.2877 41.5686 75.5775C41.0659 75.8681 40.6582 75.6353 40.6582 75.0582C40.6582 74.481 41.0659 73.778 41.5686 73.4882C42.0714 73.1985 42.4791 73.4312 42.4791 74.0076Z" fill="#FFD4FB"/>
<path opacity="0.63" d="M56.6845 59.3184C56.6845 60.5788 55.7946 62.1139 54.6958 62.7481C53.5977 63.3822 52.707 62.8747 52.707 61.6144C52.707 60.354 53.5977 58.8189 54.6958 58.1847C55.7946 57.5506 56.6845 58.0581 56.6845 59.3184Z" fill="#45A0FF"/>
<path d="M55.6061 59.9407C55.6061 60.5179 55.1983 61.2209 54.6956 61.5107C54.1929 61.8012 53.7852 61.5685 53.7852 60.9913C53.7852 60.4142 54.1929 59.7111 54.6956 59.4214C55.1983 59.1316 55.6061 59.3636 55.6061 59.9407Z" fill="#FFD4FB"/>
<path opacity="0.63" d="M73.706 36.3735C73.706 37.6339 72.8153 39.169 71.7173 39.8031C70.6192 40.4373 69.7285 39.9298 69.7285 38.6694C69.7285 37.409 70.6184 35.8739 71.7173 35.2398C72.8153 34.6056 73.706 35.1131 73.706 36.3735Z" fill="#45A0FF"/>
<path d="M72.6276 36.9958C72.6276 37.5729 72.2198 38.2759 71.7171 38.5657C71.2144 38.8563 70.8066 38.6235 70.8066 38.0464C70.8066 37.4692 71.2144 36.7662 71.7171 36.4764C72.2198 36.1867 72.6276 36.4186 72.6276 36.9958Z" fill="#FFD4FB"/>
</svg>
