<svg width="47" height="72" viewBox="0 0 47 72" fill="none" xmlns="http://www.w3.org/2000/svg">
<g opacity="0.33">
<g opacity="0.91">
<path d="M41.8704 49.8397L4.50633 71.4118C2.01724 72.8488 0 71.3232 0 68.0052V61.5845L46.3768 34.8085V41.2292C46.3776 44.548 44.3595 48.4028 41.8704 49.8397Z" fill="#42BDFF"/>
<path d="M46.3776 34.8085L0 61.5845V49.1557L46.3776 22.3797V34.8085Z" fill="#3D9DFF"/>
<path d="M46.3776 22.3797L0 49.1557V36.726L46.3776 9.95007V22.3797Z" fill="#42BDFF"/>
<path d="M46.3787 9.95005L0.00195312 36.726V30.7234C0.00195312 27.4046 2.01919 23.5498 4.50828 22.1129L41.8724 0.540739C44.3615 -0.89619 46.3787 0.62941 46.3787 3.94741V9.95005Z" fill="#3D9DFF"/>
</g>
<path d="M21.6005 39.3774L39.8824 28.8225C40.3954 28.5264 40.8111 28.8407 40.8111 29.5248C40.8111 30.2088 40.3954 31.0036 39.8824 31.2997L21.6005 41.8546C21.0875 42.1507 20.6719 41.8364 20.6719 41.1524C20.6719 40.4684 21.0875 39.6735 21.6005 39.3774Z" fill="#7DD7FF"/>
<path d="M21.6005 43.9415L32.4064 37.703C32.9194 37.4069 33.3359 37.7212 33.3359 38.4052C33.3359 39.0892 32.9202 39.8841 32.4064 40.1802L21.6005 46.4188C21.0875 46.7149 20.6719 46.4006 20.6719 45.7165C20.6719 45.0325 21.0875 44.2384 21.6005 43.9415Z" fill="#7DD7FF"/>
<path d="M21.6005 51.8062L39.8824 41.2514C40.3954 40.9553 40.8111 41.2696 40.8111 41.9536C40.8111 42.6376 40.3954 43.4325 39.8824 43.7286L21.6005 54.2835C21.0875 54.5796 20.6719 54.2653 20.6719 53.5812C20.6719 52.8972 21.0875 52.1023 21.6005 51.8062Z" fill="#7DD7FF"/>
<path d="M21.6005 56.3712L32.4064 50.1326C32.9194 49.8365 33.3359 50.1508 33.3359 50.8348C33.3359 51.5189 32.9202 52.3137 32.4064 52.6098L21.6005 58.8492C21.0875 59.1453 20.6719 58.831 20.6719 58.147C20.6719 57.4621 21.0875 56.6673 21.6005 56.3712Z" fill="#7DD7FF"/>
<path d="M21.6005 26.9486L39.8824 16.3937C40.3954 16.0976 40.8111 16.4119 40.8111 17.0959C40.8111 17.7799 40.3954 18.5748 39.8824 18.8709L21.6005 29.4258C21.0875 29.7219 20.6719 29.4076 20.6719 28.7235C20.6719 28.0395 21.0875 27.2446 21.6005 26.9486Z" fill="#7DD7FF"/>
<path d="M21.6005 31.5127L32.4064 25.2741C32.9194 24.978 33.3359 25.2923 33.3359 25.9763C33.3359 26.6604 32.9202 27.4552 32.4064 27.7513L21.6005 33.9899C21.0875 34.286 20.6719 33.9717 20.6719 33.2876C20.6719 32.6036 21.0875 31.8088 21.6005 31.5127Z" fill="#7DD7FF"/>
<path d="M21.6005 14.9369L39.8824 4.38203C40.3954 4.08593 40.8111 4.40024 40.8111 5.08426C40.8111 5.76829 40.3954 6.56316 39.8824 6.85925L21.6005 17.4141C21.0875 17.7102 20.6719 17.3959 20.6719 16.7119C20.6719 16.0287 21.0875 15.2338 21.6005 14.9369Z" fill="#7DD7FF"/>
<path d="M21.6005 19.5018L32.4064 13.2625C32.9194 12.9664 33.3359 13.2807 33.3359 13.9647C33.3359 14.6488 32.9202 15.4436 32.4064 15.7397L21.6005 21.9791C21.0875 22.2752 20.6719 21.9609 20.6719 21.2768C20.6719 20.5928 21.0875 19.7979 21.6005 19.5018Z" fill="#7DD7FF"/>
<path opacity="0.63" d="M12.0079 41.0383L6.86266 44.0088C4.79633 45.2019 3.12109 43.9352 3.12109 41.1808C3.12109 38.4257 4.79633 35.2249 6.86266 34.0326L12.0079 31.0622C14.0742 29.8691 15.7494 31.1358 15.7494 33.8901C15.7494 36.6444 14.0742 39.8453 12.0079 41.0383Z" fill="#45A0FF"/>
<g opacity="0.91">
<path d="M11.7035 27.004L7.16705 29.6229C6.01196 30.2895 5.07617 29.5817 5.07617 28.0427C5.07617 26.5028 6.01196 24.7144 7.16705 24.0478L11.7035 21.4288C12.8578 20.7622 13.7943 21.47 13.7943 23.0091C13.7943 24.5489 12.8585 26.3381 11.7035 27.004Z" fill="#7DD7FF"/>
<path d="M11.7035 39.0132L7.16705 41.6321C6.01196 42.2987 5.07617 41.5909 5.07617 40.0511C5.07617 38.5112 6.01196 36.7228 7.16705 36.0562L11.7035 33.4373C12.8578 32.7706 13.7943 33.4784 13.7943 35.0175C13.7943 36.5581 12.8585 38.3466 11.7035 39.0132Z" fill="#7DD7FF"/>
<path d="M11.7035 51.4404L7.16705 54.0594C6.01196 54.726 5.07617 54.0182 5.07617 52.4792C5.07617 50.9393 6.01196 49.1509 7.16705 48.4843L11.7035 45.8653C12.8578 45.1987 13.7943 45.9065 13.7943 47.4456C13.7943 48.9854 12.8585 50.7738 11.7035 51.4404Z" fill="#7DD7FF"/>
<path d="M11.7035 63.8677L7.16705 66.4866C6.01196 67.1532 5.07617 66.4455 5.07617 64.9064C5.07617 63.3665 6.01196 61.5781 7.16705 60.9115L11.7035 58.2926C12.8578 57.626 13.7943 58.3337 13.7943 59.8728C13.7943 61.4126 12.8585 63.2011 11.7035 63.8677Z" fill="#7DD7FF"/>
</g>
</g>
</svg>
