<svg width="97" height="77" viewBox="0 0 97 77" fill="none" xmlns="http://www.w3.org/2000/svg">
<g opacity="0.63">
<path opacity="0.91" d="M90.0523 28.0121L6.69141 76.1402C3.7178 77.8573 0 75.7111 0 72.2767V59.9603C0 55.328 2.47089 51.0481 6.48241 48.7324L89.8433 0.604398C92.8169 -1.11279 96.5347 1.0335 96.5347 4.46788V16.7851C96.5347 21.4165 94.0638 25.6964 90.0523 28.0121Z" fill="#3D9DFF"/>
<g opacity="0.91">
<path d="M34.9933 50.5953L34.8057 52.5515L28.9163 55.9519L29.4111 51.0837L28.0098 52.6838L28.1744 51.0663C28.1895 50.8573 28.2742 50.6705 28.4294 50.5066L29.605 49.1401L30.2495 42.7496L32.1899 41.6293L31.6579 46.8806L34.1755 43.9482L34.0108 45.5395C33.9855 45.7722 33.8937 45.9741 33.7337 46.1467L31.456 48.8464L31.0515 52.8722L34.9933 50.5953Z" fill="#54C9FF"/>
</g>
<path opacity="0.91" d="M17.2041 57.0967C16.8842 56.7665 16.4052 56.7072 15.7663 56.9193C16.2635 56.4079 16.6435 55.8545 16.904 55.2592C17.1653 54.6638 17.2951 54.0835 17.2951 53.5174C17.2951 52.4035 16.9444 51.7694 16.2414 51.615C15.8732 51.5342 15.4275 51.577 14.9081 51.7377V49.9342L13.5623 50.7109V52.3291C13.4776 52.375 13.3944 52.4186 13.3073 52.4692L12.2164 53.0986V51.4875L10.8705 52.2642V53.8753L8.87305 55.0288V67.2534L10.8705 66.0999V67.6666L12.2164 66.89V65.3232L13.5623 64.5465V66.1133L14.9081 65.3367V63.6733C15.6246 63.1286 16.2152 62.5214 16.6728 61.8477C17.3458 60.8572 17.6823 59.7774 17.6823 58.6072C17.683 57.9311 17.5231 57.4276 17.2041 57.0967ZM10.7438 55.8387L13.4087 54.3004C14.023 53.9457 14.4854 53.8127 14.7949 53.903C15.1045 53.9932 15.2597 54.3202 15.2597 54.8855C15.2597 55.4001 15.1061 55.8806 14.7989 56.3272C14.4917 56.7729 14.0523 57.1608 13.4815 57.4909L10.7438 59.072V55.8387ZM15.2082 61.2927C14.9105 61.7471 14.479 62.1374 13.913 62.4644L10.743 64.2948V60.7686L14.0737 58.8455C14.62 58.5304 15.0198 58.4576 15.2739 58.627C15.5273 58.7972 15.6539 59.1812 15.6539 59.7805C15.6547 60.3331 15.5059 60.8382 15.2082 61.2927Z" fill="#54C9FF"/>
<g opacity="0.91">
<path d="M89.3742 19.199L89.1865 21.1552L83.2971 24.5556L83.7919 19.6874L82.3906 21.2875L82.5553 19.67C82.5703 19.461 82.6551 19.2742 82.8102 19.1103L83.9867 17.7438L84.6311 11.3533L86.5716 10.233L86.0396 15.4843L88.5571 12.5519L88.3925 14.1432C88.3679 14.3759 88.2753 14.5778 88.1154 14.7504L85.8377 17.4501L85.4331 21.4759L89.3742 19.199Z" fill="#54C9FF"/>
</g>
<path opacity="0.91" d="M71.5849 25.6996C71.2651 25.3695 70.7861 25.3101 70.1472 25.5222C70.6444 25.0108 71.0244 24.4574 71.2849 23.8621C71.5461 23.2667 71.676 22.6864 71.676 22.1203C71.676 21.0064 71.3253 20.3723 70.6222 20.2179C70.2541 20.1371 69.8083 20.1799 69.289 20.3406V18.5371L67.9431 19.3138V20.932C67.8584 20.9779 67.7753 21.0215 67.6882 21.0721L66.5972 21.7015V20.0904L65.2513 20.8671V22.4782L63.2539 23.6317V35.8563L65.2513 34.7028V36.2695L66.5972 35.4929V33.9261L67.9431 33.1495V34.7162L69.289 33.9396V32.277C70.0055 31.7323 70.5961 31.1251 71.0537 30.4513C71.7266 29.4609 72.0631 28.3811 72.0631 27.2109C72.0639 26.534 71.904 26.0305 71.5849 25.6996ZM65.1247 24.4424L67.7895 22.9041C68.4039 22.5494 68.8662 22.4164 69.1758 22.5067C69.4853 22.5961 69.6405 22.9239 69.6405 23.4892C69.6405 24.0046 69.4869 24.4843 69.1797 24.9309C68.8726 25.3766 68.4332 25.7653 67.8624 26.0946L65.1247 27.6749V24.4424ZM69.589 29.8956C69.2914 30.35 68.8599 30.7403 68.2938 31.0673L65.1239 32.8977V29.3715L68.4546 27.4484C69.0008 27.1333 69.4006 27.0605 69.6548 27.2299C69.9081 27.4002 70.0348 27.7841 70.0348 28.3834C70.0356 28.9368 69.8867 29.4411 69.589 29.8956Z" fill="#54C9FF"/>
<g opacity="0.91">
<path d="M48.2126 31.1813L44.2051 39.9089L52.2194 35.2815L48.2126 31.1813Z" fill="#54C9FF"/>
<path d="M48.2129 31.1813V37.5956L52.2197 35.2815L48.2129 31.1813Z" fill="#54C9FF"/>
<path d="M48.2126 44.914L52.2194 36.1872L44.2051 40.8138L48.2126 44.914Z" fill="#54C9FF"/>
<path d="M48.2126 44.914V38.5005L44.2051 40.8138L48.2126 44.914Z" fill="#54C9FF"/>
</g>
</g>
</svg>
