<svg width="222" height="233" viewBox="0 0 222 233" fill="none" xmlns="http://www.w3.org/2000/svg">
<path d="M121.871 232.129C120.181 232.129 118.489 231.694 116.98 230.822L5.39328 166.397C4.82728 166.07 4.48828 165.485 4.48828 164.831C4.48828 164.177 4.82628 163.592 5.39328 163.265L74.7283 123.234C74.8203 123.181 74.9333 123.181 75.0253 123.234L191.354 190.397C191.92 190.724 192.258 191.309 192.258 191.963C192.258 192.617 191.92 193.202 191.354 193.529L126.762 230.823C125.253 231.694 123.562 232.129 121.871 232.129ZM74.8773 123.833L5.69029 163.778C5.30929 163.998 5.08229 164.391 5.08229 164.831C5.08229 165.27 5.30929 165.664 5.69029 165.884L117.277 230.309C120.11 231.945 123.631 231.946 126.465 230.309L191.058 193.016C191.439 192.796 191.666 192.403 191.666 191.963C191.666 191.524 191.439 191.13 191.058 190.91L74.8773 123.833Z" fill="#42E8E0"/>
<path d="M78.5005 93.9893L94.0465 1.7583L92.7965 1.2323L94.6745 0.155299L94.6715 0.166301C95.0355 -0.0766992 95.5515 -0.0616931 96.1195 0.266307L220.361 71.9973C221.382 72.5863 222.154 74.0973 221.975 75.1533L206.305 168.117C206.223 168.601 205.983 168.923 205.65 169.063L205.652 169.064L203.814 170.126L203.498 168.41L203.603 168.442L80.1135 97.1453C79.0935 96.5563 78.3215 95.0453 78.5005 93.9893Z" fill="url(#paint0_linear_58_433)"/>
<path d="M219.669 74.5193L221.712 73.6153C221.941 74.1383 222.054 74.6883 221.975 75.1533L206.306 168.117C206.224 168.601 205.984 168.923 205.651 169.063L205.653 169.064L203.815 170.126L203.499 168.41L203.604 168.442L197.355 164.834L219.669 74.5193Z" fill="url(#paint1_linear_58_433)"/>
<path d="M78.1643 98.2633L202.406 169.994C203.365 170.548 204.186 170.228 204.355 169.235L220.024 76.2713C220.203 75.2153 219.431 73.7043 218.411 73.1153L94.1693 1.38431C93.2103 0.830314 92.3883 1.15032 92.2203 2.14332L76.5513 95.1073C76.3723 96.1633 77.1443 97.6743 78.1643 98.2633Z" fill="#24126A"/>
<g opacity="0.51">
<path d="M95.7935 7.3183L215.553 76.4613L200.702 164.014L81.0234 94.9173L95.7935 7.3183Z" fill="#453C9E"/>
</g>
<path d="M0.0644531 142.276L6.84445 145.817L74.8324 106.564C75.9694 105.907 77.9565 105.99 79.2705 106.748L196.531 174.449C197.653 173.821 202.769 171.361 202.769 171.361L200.287 177.828C200.287 177.828 200.279 177.821 200.277 177.82C200.174 178.108 199.954 178.376 199.583 178.59L127.978 219.931C126.84 220.588 124.854 220.505 123.54 219.747L3.54546 150.468C3.00646 150.157 2.67545 149.78 2.53845 149.398L2.52945 149.404L0.0644531 142.276Z" fill="url(#paint2_linear_58_433)"/>
<path d="M1.11387 143.39L124.093 214.392C125.439 215.169 127.475 215.254 128.641 214.581L202.027 172.211C203.193 171.538 203.046 170.362 201.7 169.585L78.7209 98.5833C77.3749 97.8063 75.3389 97.7213 74.1729 98.3953L0.786875 140.765C-0.379125 141.438 -0.232129 142.613 1.11387 143.39Z" fill="url(#paint3_linear_58_433)"/>
<path d="M161.185 199.033V197.684C161.185 197.556 161.107 197.497 161.011 197.553L156.254 200.299C156.158 200.354 156.08 200.503 156.08 200.631V201.98C156.08 202.108 156.158 202.167 156.254 202.111L161.011 199.365C161.108 199.31 161.185 199.161 161.185 199.033Z" fill="#2842A2"/>
<path d="M154.074 203.14V201.791C154.074 201.663 153.996 201.604 153.9 201.66L149.143 204.406C149.047 204.461 148.969 204.61 148.969 204.738V206.087C148.969 206.215 149.047 206.274 149.143 206.218L153.9 203.472C153.996 203.417 154.074 203.268 154.074 203.14Z" fill="#2842A2"/>
<path d="M182.893 168.243L80.6982 109.24C80.0173 108.847 79.1773 108.847 78.4963 109.241L42.1043 130.296C41.5823 130.598 41.5823 131.353 42.1053 131.655L144.253 190.63C144.934 191.023 145.772 191.023 146.453 190.63L182.894 169.602C183.416 169.3 183.416 168.545 182.893 168.243Z" fill="#ADB1F2"/>
<path d="M182.893 169.602L182.527 169.813L80.6982 111.022C80.0173 110.629 79.1773 110.629 78.4963 111.023L42.4713 131.866L42.1053 131.655C41.5823 131.353 41.5823 130.599 42.1043 130.296L78.4963 109.241C79.1773 108.847 80.0173 108.847 80.6982 109.24L182.893 168.243C183.416 168.545 183.416 169.3 182.893 169.602Z" fill="#9198DB"/>
<path d="M75.752 114.574L164.523 165.826L168.47 163.547L79.699 112.295L75.752 114.574Z" fill="#24126A"/>
<path d="M66.0742 120.161L149.338 168.233L153.285 165.954L70.0212 117.882L66.0742 120.161Z" fill="#24126A"/>
<path d="M59.7715 123.8L157.807 180.4L161.753 178.121L63.7185 121.521L59.7715 123.8Z" fill="#24126A"/>
<path d="M53.4688 127.438L151.503 184.038L155.45 181.76L57.4157 125.159L53.4688 127.438Z" fill="#24126A"/>
<path d="M47.166 131.077L145.2 187.677L149.147 185.399L51.113 128.798L47.166 131.077Z" fill="#24126A"/>
<path d="M169.887 168.923L173.834 171.201L177.781 168.923L173.834 166.644L169.887 168.923Z" fill="#24126A"/>
<path d="M155.963 172.058L164.156 176.788L168.103 174.51L159.91 169.78L155.963 172.058Z" fill="#24126A"/>
<path d="M76.7641 182.521L49.2081 166.612C48.1311 165.99 48.1311 164.982 49.2081 164.36L68.0511 153.481C69.1281 152.859 70.8741 152.859 71.9511 153.481L99.5071 169.39C100.584 170.012 100.584 171.02 99.5071 171.642L80.6642 182.521C79.5872 183.143 77.8411 183.143 76.7641 182.521Z" fill="url(#paint4_linear_58_433)"/>
<path d="M99.5059 170.312L71.9509 154.403C70.8739 153.781 69.1279 153.781 68.0509 154.403L49.2079 165.282C48.8759 165.474 48.6579 165.704 48.5309 165.947C48.2459 165.403 48.4629 164.79 49.2079 164.36L68.0509 153.481C69.1279 152.859 70.8739 152.859 71.9509 153.481L99.5059 169.39C100.251 169.82 100.468 170.433 100.183 170.977C100.056 170.734 99.8389 170.504 99.5059 170.312Z" fill="#9198DB"/>
<g opacity="0.11">
<mask id="mask0_58_433" style="mask-type:luminance" maskUnits="userSpaceOnUse" x="81" y="7" width="135" height="158">
<path d="M95.7935 7.3183L215.553 76.4613L200.702 164.014L81.0234 94.9173L95.7935 7.3183Z" fill="white"/>
</mask>
<g mask="url(#mask0_58_433)">
<path d="M78.5998 98.4373L201.579 169.439C202.925 170.216 204.961 170.301 206.127 169.628L279.513 127.259C280.679 126.586 280.533 125.41 279.186 124.633L156.207 53.6313C154.861 52.8543 152.825 52.7693 151.659 53.4423L78.2728 95.8113C77.1078 96.4853 77.2538 97.6603 78.5998 98.4373Z" fill="url(#paint5_linear_58_433)"/>
<path d="M201.946 111.167L174.39 95.2583C173.313 94.6363 173.313 93.6283 174.39 93.0063L193.233 82.1273C194.31 81.5053 196.056 81.5053 197.133 82.1273L224.689 98.0363C225.766 98.6583 225.766 99.6663 224.689 100.288L205.846 111.167C204.769 111.789 203.023 111.789 201.946 111.167Z" fill="url(#paint6_linear_58_433)"/>
<path d="M224.689 98.9573L197.133 83.0483C196.056 82.4263 194.31 82.4263 193.233 83.0483L174.39 93.9273C174.058 94.1193 173.84 94.3493 173.713 94.5923C173.428 94.0483 173.645 93.4353 174.39 93.0053L193.233 82.1263C194.31 81.5043 196.056 81.5043 197.133 82.1263L224.689 98.0353C225.434 98.4653 225.651 99.0783 225.366 99.6223C225.239 99.3803 225.022 99.1493 224.689 98.9573Z" fill="#9198DB"/>
<path d="M236.802 136.029L134.607 77.0263C133.926 76.6333 133.086 76.6333 132.405 77.0273L96.0129 98.0823C95.4899 98.3843 95.4908 99.1393 96.0138 99.4413L198.162 158.416C198.843 158.809 199.681 158.809 200.362 158.416L236.803 137.388C237.325 137.087 237.325 136.331 236.802 136.029Z" fill="#ADB1F2"/>
<path d="M236.801 137.389L236.435 137.6L134.606 78.8093C133.925 78.4163 133.085 78.4163 132.404 78.8103L96.3795 99.6533L96.0135 99.4423C95.4905 99.1403 95.4905 98.3863 96.0125 98.0833L132.404 77.0283C133.085 76.6343 133.925 76.6343 134.606 77.0273L236.801 136.03C237.324 136.331 237.324 137.087 236.801 137.389Z" fill="#9198DB"/>
<path d="M105.537 96.6473L194.567 148.049L191.04 150.085L102.01 98.6833L105.537 96.6473Z" fill="#24126A"/>
<path d="M114.917 91.2313L199.539 140.087L196.012 142.123L111.391 93.2673L114.917 91.2313Z" fill="#24126A"/>
<path d="M205.857 143.735L213.76 148.299L210.233 150.335L202.33 145.772L205.857 143.735Z" fill="#24126A"/>
<path d="M198.878 150.537L204.381 153.714L200.855 155.751L195.352 152.573L198.878 150.537Z" fill="#24126A"/>
<path d="M120.795 87.8373L219.639 144.905L216.112 146.941L117.268 89.8743L120.795 87.8373Z" fill="#24126A"/>
<path d="M126.673 84.4443L225.517 141.511L221.99 143.548L123.146 86.4803L126.673 84.4443Z" fill="#24126A"/>
<path d="M132.55 81.0503L231.394 138.118L227.867 140.154L129.023 83.0873L132.55 81.0503Z" fill="#24126A"/>
</g>
</g>
<path opacity="0.42" d="M135.539 162.987L162.032 146.685L102.467 112.295L74.3574 131.19L135.539 162.987Z" fill="url(#paint7_radial_58_433)"/>
<path opacity="0.42" d="M162.033 146.685L168.103 108.35L112.205 76.2863V117.839L162.033 146.685Z" fill="url(#paint8_radial_58_433)"/>
<path d="M106.355 57.6633L112.269 54.2573V54.2623C112.347 54.2113 112.45 54.2083 112.564 54.2743L186.664 97.0563C186.906 97.1963 187.102 97.5703 187.102 97.8933V111.881C187.102 112.036 187.055 112.148 186.981 112.21L186.983 112.211L186.978 112.214C186.972 112.219 186.966 112.221 186.96 112.224L180.987 115.665L180.94 108.907L112.565 69.4313C112.323 69.2913 112.127 68.9173 112.127 68.5943V63.7933L106.355 57.6633Z" fill="url(#paint9_linear_58_433)"/>
<path d="M106.62 72.8523L180.72 115.633C180.962 115.773 181.158 115.624 181.158 115.302V101.314C181.158 100.992 180.962 100.617 180.72 100.477L106.62 57.6963C106.378 57.5563 106.182 57.7043 106.182 58.0273V72.0163C106.182 72.3383 106.378 72.7133 106.62 72.8523Z" fill="url(#paint10_linear_58_433)"/>
<path opacity="0.6" d="M116.842 70.0193L174.539 103.944C172.756 105.479 171.067 107.237 169.518 109.165L111.395 75.6083C113.068 73.5253 114.901 71.6383 116.842 70.0193Z" fill="#24126A"/>
<path d="M108.735 68.6513L178.607 108.991C178.772 109.086 178.906 108.985 178.906 108.765V105.251C178.906 105.03 178.772 104.774 178.607 104.679L108.735 64.3393C108.57 64.2433 108.436 64.3453 108.436 64.5653V68.0793C108.435 68.3003 108.57 68.5563 108.735 68.6513Z" fill="#24126A"/>
<path d="M108.735 64.3393L110.156 65.1593V67.0563C110.156 67.2773 110.29 67.5333 110.455 67.6283L178.906 107.148V108.765C178.906 108.986 178.772 109.087 178.607 108.991L108.735 68.6503C108.57 68.5543 108.436 68.2983 108.436 68.0783V64.5643C108.435 64.3443 108.57 64.2433 108.735 64.3393Z" fill="#453C9E"/>
<path opacity="0.96" d="M69.4815 220.009L11.3535 186.449C18.8525 182.12 25.1725 172.644 27.1035 163.583C27.8865 159.911 30.1335 156.721 33.3855 154.844L77.3105 129.487C89.5445 122.424 97.4755 109.708 98.3065 95.6063C99.0085 83.6993 108.011 71.9893 114.998 67.9563L173.126 101.516C166.243 105.49 158.665 116.596 157.803 128.301C156.764 142.402 149.094 155.165 136.849 162.234L91.5145 188.405C88.2625 190.282 86.0155 193.472 85.2325 197.145C83.3005 206.204 76.9805 215.679 69.4815 220.009Z" fill="url(#paint11_linear_58_433)"/>
<g opacity="0.32">
<path d="M133.287 110.214L140.82 114.563V113.723L133.287 109.374V110.214Z" fill="#4553C7"/>
<path d="M129.424 107.983L132.137 109.549V108.71L129.424 107.144V107.983Z" fill="#4553C7"/>
<path d="M126.432 106.255L128.275 107.319V106.48L126.432 105.416V106.255Z" fill="#4553C7"/>
<path d="M136.717 114.111L140.821 116.48V115.641L136.717 113.271V114.111Z" fill="#4553C7"/>
<path d="M130.535 110.542L135.565 113.446V112.607L130.535 109.703V110.542Z" fill="#4553C7"/>
<path d="M127.541 108.814L129.384 109.878V109.038L127.541 107.974V108.814Z" fill="#4553C7"/>
<path d="M124.691 107.169L126.534 108.233V107.393L124.691 106.329V107.169Z" fill="#4553C7"/>
<path d="M137.852 116.683L140.821 118.398V117.558L137.852 115.844V116.683Z" fill="#4553C7"/>
<path d="M135.686 115.433L136.701 116.019V115.179L135.686 114.593V115.433Z" fill="#4553C7"/>
<path d="M132.691 113.704L134.534 114.768V113.929L132.691 112.865V113.704Z" fill="#4553C7"/>
<path d="M129.859 113.987L140.82 120.315V119.476L129.859 113.147V113.987Z" fill="#4553C7"/>
<path d="M125.996 111.756L128.708 113.322V112.483L125.996 110.917V111.756Z" fill="#4553C7"/>
<path d="M137.852 120.518L140.821 122.233V121.393L137.852 119.679V120.518Z" fill="#4553C7"/>
<path d="M130.881 116.494L136.7 119.854V119.014L130.881 115.655V116.494Z" fill="#4553C7"/>
<path d="M127.887 114.766L129.73 115.83V114.99L127.887 113.926V114.766Z" fill="#4553C7"/>
<path d="M134.744 120.642L140.82 124.15V123.311L134.744 119.803V120.642Z" fill="#4553C7"/>
<path d="M129.199 117.441L133.593 119.977V119.138L129.199 116.601V117.441Z" fill="#4553C7"/>
<path d="M125.08 115.062L128.049 116.776V115.937L125.08 114.222V115.062Z" fill="#4553C7"/>
<path d="M138.768 124.883L140.82 126.067V125.228L138.768 124.043V124.883Z" fill="#4553C7"/>
<path d="M134.904 122.652L137.616 124.218V123.379L134.904 121.813V122.652Z" fill="#4553C7"/>
<path d="M129.385 119.465L133.755 121.988V121.149L129.385 118.625V119.465Z" fill="#4553C7"/>
<path d="M134.535 124.356L140.821 127.985V127.145L134.535 123.516V124.356Z" fill="#4553C7"/>
<path d="M127.492 120.29L133.382 123.691V122.852L127.492 119.451V120.29Z" fill="#4553C7"/>
<path d="M124.5 118.562L126.343 119.626V118.787L124.5 117.722V118.562Z" fill="#4553C7"/>
<path d="M121.627 116.903L123.47 117.967V117.128L121.627 116.064V116.903Z" fill="#4553C7"/>
<path d="M137.055 127.728L140.821 129.902V129.063L137.055 126.888V127.728Z" fill="#4553C7"/>
<path d="M118.008 101.392L112.785 98.3773V97.5373L118.008 100.553V101.392Z" fill="#4553C7"/>
<path d="M116.889 102.664L112.785 100.294V99.4553L116.889 101.824V102.664Z" fill="#4553C7"/>
<path d="M115.755 103.926L112.785 102.211V101.372L115.755 103.087V103.926Z" fill="#4553C7"/>
<path d="M117.105 106.623L112.785 104.129V103.29L117.105 105.783V106.623Z" fill="#4553C7"/>
<path d="M115.755 107.761L112.785 106.046V105.207L115.755 106.921V107.761Z" fill="#4553C7"/>
<path d="M116.551 110.138L112.785 107.964V107.124L116.551 109.299V110.138Z" fill="#4553C7"/>
<path d="M114.837 111.066L112.785 109.881V109.042L114.837 110.227V111.066Z" fill="#4553C7"/>
<path d="M116.761 114.095L112.785 111.799V110.959L116.761 113.255V114.095Z" fill="#4553C7"/>
<path d="M116.551 115.891L112.785 113.716V112.877L116.551 115.051V115.891Z" fill="#4553C7"/>
<path d="M134.301 126.139L135.903 127.063V126.224L134.301 125.299V126.139Z" fill="#4553C7"/>
<path d="M129.545 123.393L133.151 125.474V124.635L129.545 122.553V123.393Z" fill="#4553C7"/>
</g>
<path opacity="0.8" d="M114.998 67.9543L173.126 101.514C172.66 101.783 172.199 102.075 171.742 102.377L171.738 102.374L113.617 68.8153C114.073 68.5133 114.533 68.2223 114.998 67.9543Z" fill="#453C9E"/>
<path d="M59.3203 96.9353H77.8633V136.539C77.8633 137.909 76.9583 139.279 75.1473 140.324C71.5263 142.415 65.6563 142.415 62.0353 140.324C60.2253 139.279 59.3193 137.909 59.3203 136.539V96.9353Z" fill="url(#paint12_linear_58_433)"/>
<path d="M59.3203 96.9353H77.8633V136.539C77.8633 137.909 76.9583 139.279 75.1473 140.324C71.5263 142.415 65.6563 142.415 62.0353 140.324C60.2253 139.279 59.3193 137.909 59.3203 136.539V96.9353Z" fill="url(#paint13_linear_58_433)"/>
<path d="M62.0361 100.72C65.6571 102.81 71.527 102.81 75.148 100.72C78.769 98.6303 78.769 95.2403 75.148 93.1503C71.527 91.0603 65.6571 91.0603 62.0361 93.1503C58.4151 95.2403 58.4151 98.6303 62.0361 100.72Z" fill="url(#paint14_linear_58_433)"/>
<path opacity="0.3" d="M64.3586 99.3793C66.6956 100.729 70.4856 100.728 72.8236 99.3793C75.1606 98.0293 75.1606 95.8413 72.8236 94.4923C70.4866 93.1433 66.6966 93.1433 64.3586 94.4923C62.0206 95.8413 62.0216 98.0293 64.3586 99.3793Z" fill="url(#paint15_linear_58_433)"/>
<path opacity="0.5" d="M62.0355 100.323C65.6565 102.413 71.5265 102.413 75.1475 100.323C76.8705 99.3283 77.7635 98.0403 77.8465 96.7373C77.9385 98.1733 77.0455 99.6253 75.1475 100.721C71.5265 102.812 65.6565 102.812 62.0355 100.721C60.1375 99.6253 59.2445 98.1733 59.3365 96.7373C59.4195 98.0393 60.3125 99.3283 62.0355 100.323Z" fill="white"/>
<path d="M59.3203 88.3303H77.8633V91.9473C77.8633 93.3173 76.9583 94.6873 75.1473 95.7323C71.5263 97.8223 65.6563 97.8233 62.0353 95.7323C60.2253 94.6873 59.3193 93.3173 59.3203 91.9473V88.3303Z" fill="url(#paint16_linear_58_433)"/>
<path d="M59.3203 88.3303H77.8633V91.9473C77.8633 93.3173 76.9583 94.6873 75.1473 95.7323C71.5263 97.8223 65.6563 97.8233 62.0353 95.7323C60.2253 94.6873 59.3193 93.3173 59.3203 91.9473V88.3303Z" fill="url(#paint17_linear_58_433)"/>
<path d="M62.0361 92.1153C65.6571 94.2053 71.527 94.2053 75.148 92.1153C78.769 90.0253 78.769 86.6353 75.148 84.5453C71.527 82.4553 65.6571 82.4553 62.0361 84.5453C58.4151 86.6353 58.4151 90.0253 62.0361 92.1153Z" fill="url(#paint18_linear_58_433)"/>
<path opacity="0.5" d="M62.0355 91.7183C65.6565 93.8083 71.5265 93.8083 75.1475 91.7183C76.8705 90.7233 77.7635 89.4343 77.8465 88.1313C77.9385 89.5663 77.0455 91.0193 75.1475 92.1153C71.5265 94.2053 65.6565 94.2063 62.0355 92.1153C60.1375 91.0193 59.2445 89.5673 59.3365 88.1313C59.4195 89.4343 60.3125 90.7233 62.0355 91.7183Z" fill="white"/>
<path d="M74.6514 118.977H93.1944V145.381C93.1944 146.751 92.2894 148.121 90.4784 149.166C86.8574 151.256 80.9874 151.257 77.3664 149.166C75.5564 148.121 74.6504 146.751 74.6504 145.381V118.977H74.6514Z" fill="url(#paint19_linear_58_433)"/>
<path d="M74.6514 118.977H93.1944V145.381C93.1944 146.751 92.2894 148.121 90.4784 149.166C86.8574 151.256 80.9874 151.257 77.3664 149.166C75.5564 148.121 74.6504 146.751 74.6504 145.381V118.977H74.6514Z" fill="url(#paint20_linear_58_433)"/>
<path d="M83.9243 124.33C89.0451 124.33 93.1963 121.934 93.1963 118.977C93.1963 116.021 89.0451 113.624 83.9243 113.624C78.8035 113.624 74.6523 116.021 74.6523 118.977C74.6523 121.934 78.8035 124.33 83.9243 124.33Z" fill="url(#paint21_linear_58_433)"/>
<path opacity="0.5" d="M77.3675 122.364C80.9885 124.454 86.8585 124.454 90.4795 122.364C92.2025 121.369 93.0955 120.08 93.1785 118.777C93.2705 120.213 92.3775 121.665 90.4795 122.761C86.8585 124.851 80.9885 124.852 77.3675 122.761C75.4695 121.665 74.5766 120.213 74.6686 118.777C74.7516 120.081 75.6445 121.37 77.3675 122.364Z" fill="white"/>
<path d="M89.9834 114.297H108.526V154.222C108.526 155.592 107.621 156.962 105.81 158.007C102.189 160.098 96.3194 160.098 92.6984 158.007C90.8884 156.962 89.9824 155.592 89.9824 154.222V114.297H89.9834Z" fill="url(#paint22_linear_58_433)"/>
<path d="M89.9834 114.297H108.526V154.222C108.526 155.592 107.621 156.962 105.81 158.007C102.189 160.098 96.3194 160.098 92.6984 158.007C90.8884 156.962 89.9824 155.592 89.9824 154.222V114.297H89.9834Z" fill="url(#paint23_linear_58_433)"/>
<path d="M92.6982 118.082C96.3192 120.172 102.189 120.172 105.81 118.082C109.431 115.991 109.431 112.602 105.81 110.512C102.189 108.422 96.3192 108.422 92.6982 110.512C89.0772 112.602 89.0772 115.991 92.6982 118.082Z" fill="url(#paint24_linear_58_433)"/>
<path opacity="0.5" d="M92.6976 117.684C96.3186 119.774 102.189 119.774 105.81 117.684C107.533 116.689 108.426 115.4 108.509 114.097C108.601 115.533 107.708 116.985 105.81 118.081C102.189 120.171 96.3186 120.171 92.6976 118.081C90.7996 116.985 89.9066 115.533 89.9986 114.097C90.0816 115.401 90.9746 116.69 92.6976 117.684Z" fill="white"/>
<path d="M105.314 130.335H123.857V163.062C123.857 164.432 122.952 165.802 121.141 166.847C117.52 168.938 111.65 168.938 108.029 166.847C106.219 165.802 105.312 164.432 105.312 163.062V130.335H105.314Z" fill="url(#paint25_linear_58_433)"/>
<path d="M105.314 130.335H123.857V163.062C123.857 164.432 122.952 165.802 121.141 166.847C117.52 168.938 111.65 168.938 108.029 166.847C106.219 165.802 105.312 164.432 105.312 163.062V130.335H105.314Z" fill="url(#paint26_linear_58_433)"/>
<path d="M108.029 134.121C111.65 136.211 117.52 136.211 121.141 134.121C124.762 132.031 124.762 128.641 121.141 126.551C117.52 124.461 111.65 124.461 108.029 126.551C104.409 128.641 104.409 132.03 108.029 134.121Z" fill="url(#paint27_linear_58_433)"/>
<path opacity="0.5" d="M108.028 133.723C111.649 135.813 117.519 135.813 121.14 133.723C122.863 132.728 123.756 131.439 123.839 130.137C123.931 131.572 123.038 133.025 121.14 134.121C117.519 136.211 111.649 136.212 108.028 134.121C106.13 133.025 105.237 131.573 105.329 130.137C105.413 131.44 106.306 132.729 108.028 133.723Z" fill="white"/>
<path d="M120.645 147.245H139.188V171.904C139.188 173.274 138.283 174.644 136.472 175.689C132.851 177.779 126.981 177.78 123.36 175.689C121.55 174.644 120.645 173.274 120.645 171.904V147.245Z" fill="url(#paint28_linear_58_433)"/>
<path d="M120.645 147.245H139.188V171.904C139.188 173.274 138.283 174.644 136.472 175.689C132.851 177.779 126.981 177.78 123.36 175.689C121.55 174.644 120.645 173.274 120.645 171.904V147.245Z" fill="url(#paint29_linear_58_433)"/>
<path d="M123.36 151.03C126.981 153.12 132.851 153.12 136.472 151.03C140.093 148.94 140.093 145.55 136.472 143.46C132.851 141.37 126.981 141.37 123.36 143.46C119.739 145.551 119.739 148.94 123.36 151.03Z" fill="url(#paint30_linear_58_433)"/>
<path opacity="0.5" d="M123.36 150.633C126.981 152.723 132.851 152.723 136.472 150.633C138.195 149.638 139.088 148.349 139.171 147.046C139.263 148.482 138.37 149.934 136.472 151.03C132.851 153.121 126.981 153.121 123.36 151.03C121.462 149.934 120.569 148.482 120.661 147.046C120.744 148.35 121.637 149.638 123.36 150.633Z" fill="white"/>
<path d="M204.166 80.7733L205.957 81.9133L206.17 80.5913L204.378 79.4513L204.166 80.7733Z" fill="#42E8E0"/>
<path d="M202.729 89.7213L204.52 90.8613L205.763 83.1193L203.971 81.9803L202.729 89.7213Z" fill="#42E8E0"/>
<path d="M202.043 94.0013L203.835 95.1413L204.328 92.0673L202.537 90.9283L202.043 94.0013Z" fill="#42E8E0"/>
<path d="M201.332 98.4363L203.123 99.5763L203.616 96.5033L201.825 95.3633L201.332 98.4363Z" fill="#42E8E0"/>
<path d="M200.807 83.3533L202.598 84.4933L203.092 81.4203L201.3 80.2803L200.807 83.3533Z" fill="#42E8E0"/>
<path d="M199.863 89.2283L201.655 90.3683L202.379 85.8553L200.587 84.7153L199.863 89.2283Z" fill="#42E8E0"/>
<path d="M198.996 94.6363L200.788 95.7753L201.409 91.9043L199.618 90.7653L198.996 94.6363Z" fill="#42E8E0"/>
<path d="M200.619 102.871L202.41 104.011L202.903 100.938L201.112 99.7983L200.619 102.871Z" fill="#42E8E0"/>
<path d="M201.494 79.0743L203.285 80.2143L203.497 78.8913L201.706 77.7513L201.494 79.0743Z" fill="#42E8E0"/>
<path d="M198.594 106.325L201.721 108.315L201.927 107.031L198.8 105.041L198.594 106.325Z" fill="#42E8E0"/>
<defs>
<linearGradient id="paint0_linear_58_433" x1="222.001" y1="85.0629" x2="78.4747" y2="85.0629" gradientUnits="userSpaceOnUse">
<stop stop-color="#C0BFF6"/>
<stop offset="0.2938" stop-color="#C5C4F7"/>
<stop offset="0.6399" stop-color="#D3D2F9"/>
<stop offset="1" stop-color="#E9E9FD"/>
</linearGradient>
<linearGradient id="paint1_linear_58_433" x1="222" y1="121.871" x2="197.355" y2="121.871" gradientUnits="userSpaceOnUse">
<stop stop-color="#5761D7"/>
<stop offset="0.1779" stop-color="#5C66D9"/>
<stop offset="0.3876" stop-color="#6A73DF"/>
<stop offset="0.6134" stop-color="#8289E8"/>
<stop offset="0.849" stop-color="#A3A7F5"/>
<stop offset="1" stop-color="#BCBEFF"/>
</linearGradient>
<linearGradient id="paint2_linear_58_433" x1="202.77" y1="163.247" x2="0.0648639" y2="163.247" gradientUnits="userSpaceOnUse">
<stop stop-color="#5761D7"/>
<stop offset="0.1779" stop-color="#5C66D9"/>
<stop offset="0.3876" stop-color="#6A73DF"/>
<stop offset="0.6134" stop-color="#8289E8"/>
<stop offset="0.849" stop-color="#A3A7F5"/>
<stop offset="1" stop-color="#BCBEFF"/>
</linearGradient>
<linearGradient id="paint3_linear_58_433" x1="134.661" y1="156.488" x2="-68.1525" y2="156.488" gradientUnits="userSpaceOnUse">
<stop stop-color="#C0BFF6"/>
<stop offset="0.2938" stop-color="#C5C4F7"/>
<stop offset="0.6399" stop-color="#D3D2F9"/>
<stop offset="1" stop-color="#E9E9FD"/>
</linearGradient>
<linearGradient id="paint4_linear_58_433" x1="100.315" y1="168.002" x2="48.4006" y2="168.002" gradientUnits="userSpaceOnUse">
<stop stop-color="#C0BFF6"/>
<stop offset="0.2938" stop-color="#C5C4F7"/>
<stop offset="0.6399" stop-color="#D3D2F9"/>
<stop offset="1" stop-color="#E9E9FD"/>
</linearGradient>
<linearGradient id="paint5_linear_58_433" x1="212.147" y1="111.535" x2="9.33388" y2="111.535" gradientUnits="userSpaceOnUse">
<stop stop-color="#C0BFF6"/>
<stop offset="0.2938" stop-color="#C5C4F7"/>
<stop offset="0.6399" stop-color="#D3D2F9"/>
<stop offset="1" stop-color="#E9E9FD"/>
</linearGradient>
<linearGradient id="paint6_linear_58_433" x1="225.497" y1="96.6472" x2="173.582" y2="96.6472" gradientUnits="userSpaceOnUse">
<stop stop-color="#C0BFF6"/>
<stop offset="0.2938" stop-color="#C5C4F7"/>
<stop offset="0.6399" stop-color="#D3D2F9"/>
<stop offset="1" stop-color="#E9E9FD"/>
</linearGradient>
<radialGradient id="paint7_radial_58_433" cx="0" cy="0" r="1" gradientUnits="userSpaceOnUse" gradientTransform="translate(143.694 137.641) rotate(180) scale(58.1424 58.1424)">
<stop stop-color="#2B237C"/>
<stop offset="1" stop-color="#180D5B"/>
</radialGradient>
<radialGradient id="paint8_radial_58_433" cx="0" cy="0" r="1" gradientUnits="userSpaceOnUse" gradientTransform="translate(156.411 111.486) rotate(180) scale(44.5045 44.5045)">
<stop stop-color="#2B237C"/>
<stop offset="1" stop-color="#180D5B"/>
</radialGradient>
<linearGradient id="paint9_linear_58_433" x1="172.434" y1="124.333" x2="133.23" y2="53.742" gradientUnits="userSpaceOnUse">
<stop stop-color="#5761D7"/>
<stop offset="0.0398" stop-color="#5C66D9"/>
<stop offset="0.0867" stop-color="#6A73DF"/>
<stop offset="0.1372" stop-color="#8289E8"/>
<stop offset="0.1899" stop-color="#A3A7F5"/>
<stop offset="0.2237" stop-color="#BCBEFF"/>
</linearGradient>
<linearGradient id="paint10_linear_58_433" x1="124.273" y1="124.584" x2="150.367" y2="73.5734" gradientUnits="userSpaceOnUse">
<stop stop-color="#C0BFF6"/>
<stop offset="0.2938" stop-color="#C5C4F7"/>
<stop offset="0.6399" stop-color="#D3D2F9"/>
<stop offset="1" stop-color="#E9E9FD"/>
</linearGradient>
<linearGradient id="paint11_linear_58_433" x1="53.7446" y1="216.278" x2="136.677" y2="69.3299" gradientUnits="userSpaceOnUse">
<stop stop-color="#C0BFF6"/>
<stop offset="0.0775" stop-color="#C3C2F6"/>
<stop offset="0.1329" stop-color="#CCCBF8"/>
<stop offset="0.1813" stop-color="#DBDBFB"/>
<stop offset="0.2117" stop-color="#E9E9FD"/>
<stop offset="0.2579" stop-color="#D8D7FA"/>
<stop offset="0.3159" stop-color="#CACAF8"/>
<stop offset="0.3878" stop-color="#C2C1F6"/>
<stop offset="0.5143" stop-color="#C0BFF6"/>
<stop offset="0.6217" stop-color="#D0CFF9"/>
<stop offset="0.755" stop-color="#E9E9FD"/>
<stop offset="1" stop-color="#C0BFF6"/>
</linearGradient>
<linearGradient id="paint12_linear_58_433" x1="77.8636" y1="119.414" x2="59.4261" y2="119.414" gradientUnits="userSpaceOnUse">
<stop stop-color="#C0BFF6"/>
<stop offset="0.488" stop-color="#D2D1F9"/>
<stop offset="1" stop-color="#E9E9FD"/>
</linearGradient>
<linearGradient id="paint13_linear_58_433" x1="98.5262" y1="119.414" x2="62.8963" y2="119.414" gradientUnits="userSpaceOnUse">
<stop stop-color="#5761D7"/>
<stop offset="0.1779" stop-color="#5C66D9"/>
<stop offset="0.3876" stop-color="#6A73DF"/>
<stop offset="0.6134" stop-color="#8289E8"/>
<stop offset="0.849" stop-color="#A3A7F5"/>
<stop offset="1" stop-color="#BCBEFF"/>
</linearGradient>
<linearGradient id="paint14_linear_58_433" x1="75.1478" y1="93.15" x2="68.5915" y2="104.506" gradientUnits="userSpaceOnUse">
<stop stop-color="#C0BFF6"/>
<stop offset="0.2938" stop-color="#C5C4F7"/>
<stop offset="0.6399" stop-color="#D3D2F9"/>
<stop offset="1" stop-color="#E9E9FD"/>
</linearGradient>
<linearGradient id="paint15_linear_58_433" x1="72.8235" y1="94.4917" x2="68.591" y2="101.822" gradientUnits="userSpaceOnUse">
<stop stop-color="#5761D7"/>
<stop offset="0.1779" stop-color="#5C66D9"/>
<stop offset="0.3876" stop-color="#6A73DF"/>
<stop offset="0.6134" stop-color="#8289E8"/>
<stop offset="0.849" stop-color="#A3A7F5"/>
<stop offset="1" stop-color="#BCBEFF"/>
</linearGradient>
<linearGradient id="paint16_linear_58_433" x1="77.8636" y1="92.8154" x2="59.4261" y2="92.8154" gradientUnits="userSpaceOnUse">
<stop stop-color="#C0BFF6"/>
<stop offset="0.488" stop-color="#D2D1F9"/>
<stop offset="1" stop-color="#E9E9FD"/>
</linearGradient>
<linearGradient id="paint17_linear_58_433" x1="98.5262" y1="92.8154" x2="62.8963" y2="92.8154" gradientUnits="userSpaceOnUse">
<stop stop-color="#5761D7"/>
<stop offset="0.1779" stop-color="#5C66D9"/>
<stop offset="0.3876" stop-color="#6A73DF"/>
<stop offset="0.6134" stop-color="#8289E8"/>
<stop offset="0.849" stop-color="#A3A7F5"/>
<stop offset="1" stop-color="#BCBEFF"/>
</linearGradient>
<linearGradient id="paint18_linear_58_433" x1="75.1478" y1="84.5451" x2="68.5914" y2="95.9007" gradientUnits="userSpaceOnUse">
<stop stop-color="#C0BFF6"/>
<stop offset="0.2938" stop-color="#C5C4F7"/>
<stop offset="0.6399" stop-color="#D3D2F9"/>
<stop offset="1" stop-color="#E9E9FD"/>
</linearGradient>
<linearGradient id="paint19_linear_58_433" x1="93.195" y1="134.855" x2="74.7575" y2="134.855" gradientUnits="userSpaceOnUse">
<stop stop-color="#C0BFF6"/>
<stop offset="0.488" stop-color="#D2D1F9"/>
<stop offset="1" stop-color="#E9E9FD"/>
</linearGradient>
<linearGradient id="paint20_linear_58_433" x1="113.858" y1="134.855" x2="78.2277" y2="134.855" gradientUnits="userSpaceOnUse">
<stop stop-color="#5761D7"/>
<stop offset="0.1779" stop-color="#5C66D9"/>
<stop offset="0.3876" stop-color="#6A73DF"/>
<stop offset="0.6134" stop-color="#8289E8"/>
<stop offset="0.849" stop-color="#A3A7F5"/>
<stop offset="1" stop-color="#BCBEFF"/>
</linearGradient>
<linearGradient id="paint21_linear_58_433" x1="90.4803" y1="115.192" x2="83.924" y2="126.547" gradientUnits="userSpaceOnUse">
<stop stop-color="#C0BFF6"/>
<stop offset="0.2938" stop-color="#C5C4F7"/>
<stop offset="0.6399" stop-color="#D3D2F9"/>
<stop offset="1" stop-color="#E9E9FD"/>
</linearGradient>
<linearGradient id="paint22_linear_58_433" x1="108.526" y1="136.936" x2="90.0888" y2="136.936" gradientUnits="userSpaceOnUse">
<stop stop-color="#C0BFF6"/>
<stop offset="0.488" stop-color="#D2D1F9"/>
<stop offset="1" stop-color="#E9E9FD"/>
</linearGradient>
<linearGradient id="paint23_linear_58_433" x1="129.189" y1="136.936" x2="93.559" y2="136.936" gradientUnits="userSpaceOnUse">
<stop stop-color="#5761D7"/>
<stop offset="0.1779" stop-color="#5C66D9"/>
<stop offset="0.3876" stop-color="#6A73DF"/>
<stop offset="0.6134" stop-color="#8289E8"/>
<stop offset="0.849" stop-color="#A3A7F5"/>
<stop offset="1" stop-color="#BCBEFF"/>
</linearGradient>
<linearGradient id="paint24_linear_58_433" x1="105.81" y1="110.512" x2="99.2541" y2="121.867" gradientUnits="userSpaceOnUse">
<stop stop-color="#C0BFF6"/>
<stop offset="0.2938" stop-color="#C5C4F7"/>
<stop offset="0.6399" stop-color="#D3D2F9"/>
<stop offset="1" stop-color="#E9E9FD"/>
</linearGradient>
<linearGradient id="paint25_linear_58_433" x1="123.857" y1="149.376" x2="105.419" y2="149.376" gradientUnits="userSpaceOnUse">
<stop stop-color="#C0BFF6"/>
<stop offset="0.488" stop-color="#D2D1F9"/>
<stop offset="1" stop-color="#E9E9FD"/>
</linearGradient>
<linearGradient id="paint26_linear_58_433" x1="144.519" y1="149.376" x2="108.889" y2="149.376" gradientUnits="userSpaceOnUse">
<stop stop-color="#5761D7"/>
<stop offset="0.1779" stop-color="#5C66D9"/>
<stop offset="0.3876" stop-color="#6A73DF"/>
<stop offset="0.6134" stop-color="#8289E8"/>
<stop offset="0.849" stop-color="#A3A7F5"/>
<stop offset="1" stop-color="#BCBEFF"/>
</linearGradient>
<linearGradient id="paint27_linear_58_433" x1="121.142" y1="126.55" x2="114.586" y2="137.906" gradientUnits="userSpaceOnUse">
<stop stop-color="#C0BFF6"/>
<stop offset="0.2938" stop-color="#C5C4F7"/>
<stop offset="0.6399" stop-color="#D3D2F9"/>
<stop offset="1" stop-color="#E9E9FD"/>
</linearGradient>
<linearGradient id="paint28_linear_58_433" x1="139.188" y1="162.251" x2="120.751" y2="162.251" gradientUnits="userSpaceOnUse">
<stop stop-color="#C0BFF6"/>
<stop offset="0.488" stop-color="#D2D1F9"/>
<stop offset="1" stop-color="#E9E9FD"/>
</linearGradient>
<linearGradient id="paint29_linear_58_433" x1="159.851" y1="162.251" x2="124.221" y2="162.251" gradientUnits="userSpaceOnUse">
<stop stop-color="#5761D7"/>
<stop offset="0.1779" stop-color="#5C66D9"/>
<stop offset="0.3876" stop-color="#6A73DF"/>
<stop offset="0.6134" stop-color="#8289E8"/>
<stop offset="0.849" stop-color="#A3A7F5"/>
<stop offset="1" stop-color="#BCBEFF"/>
</linearGradient>
<linearGradient id="paint30_linear_58_433" x1="136.472" y1="143.46" x2="129.916" y2="154.816" gradientUnits="userSpaceOnUse">
<stop stop-color="#C0BFF6"/>
<stop offset="0.2938" stop-color="#C5C4F7"/>
<stop offset="0.6399" stop-color="#D3D2F9"/>
<stop offset="1" stop-color="#E9E9FD"/>
</linearGradient>
</defs>
</svg>
