<svg width="413" height="83" viewBox="0 0 413 83" fill="none" xmlns="http://www.w3.org/2000/svg">
<path d="M112.182 82.7397C112.131 82.7397 112.08 82.7257 112.034 82.6997L0.148004 18.1038C0.0060041 18.0218 -0.0419976 17.8397 0.0400024 17.6987C0.123002 17.5567 0.302001 17.5077 0.445001 17.5907L112.182 82.1017L254.318 0.03975C254.41 -0.01325 254.523 -0.01325 254.614 0.03975L349.325 54.7207L411.806 18.6477C411.948 18.5657 412.129 18.6147 412.211 18.7557C412.293 18.8977 412.244 19.0787 412.103 19.1607L349.473 55.3197C349.381 55.3727 349.268 55.3727 349.176 55.3197L254.466 0.638749L112.33 82.7007C112.285 82.7267 112.233 82.7397 112.182 82.7397Z" fill="#42E8E0"/>
</svg>
