<svg width="292" height="119" viewBox="0 0 292 119" fill="none" xmlns="http://www.w3.org/2000/svg">
<path d="M86.257 118.902C86.206 118.902 86.154 118.888 86.109 118.862L0.14801 69.2332C0.0570103 69.1802 0 69.0823 0 68.9762C0 68.8702 0.0570103 68.7722 0.14801 68.7192L75.547 25.1872C75.69 25.1072 75.87 25.1552 75.952 25.2952C76.033 25.4372 75.985 25.6182 75.844 25.7002L0.889008 68.9752L86.258 118.261L291.024 0.0402281C291.166 -0.0427719 291.348 0.00722979 291.429 0.14823C291.511 0.29023 291.462 0.471229 291.321 0.553229L86.405 118.862C86.359 118.888 86.308 118.902 86.257 118.902Z" fill="#42E8E0"/>
</svg>
