<svg width="60" height="127" viewBox="0 0 60 127" fill="none" xmlns="http://www.w3.org/2000/svg">
<path d="M27.4309 91.4354C25.6949 90.4334 25.6949 88.8084 27.4309 87.8054C29.1669 86.8034 31.9819 86.8034 33.7179 87.8054C35.4539 88.8074 35.4539 90.4324 33.7179 91.4354C31.9819 92.4384 29.1669 92.4384 27.4309 91.4354Z" fill="url(#paint0_linear_58_437)"/>
<path d="M27.4319 91.2184C29.1679 92.2204 31.9828 92.2204 33.7188 91.2184C34.5388 90.7454 34.9668 90.1324 35.0118 89.5124C35.0628 90.2054 34.6348 90.9074 33.7188 91.4364C31.9828 92.4384 29.1679 92.4384 27.4319 91.4364C26.5159 90.9074 26.0878 90.2054 26.1388 89.5124C26.1838 90.1324 26.6119 90.7444 27.4319 91.2184Z" fill="white"/>
<path d="M27.4309 100.069C25.6949 99.0674 25.6949 97.4424 27.4309 96.4394C29.1669 95.4374 31.9819 95.4374 33.7179 96.4394C35.4539 97.4414 35.4539 99.0664 33.7179 100.069C31.9819 101.071 29.1669 101.071 27.4309 100.069Z" fill="url(#paint1_linear_58_437)"/>
<path d="M27.4309 108.854C25.6949 107.852 25.6949 106.227 27.4309 105.224C29.1669 104.222 31.9819 104.222 33.7179 105.224C35.4539 106.226 35.4539 107.851 33.7179 108.854C31.9819 109.856 29.1669 109.856 27.4309 108.854Z" fill="url(#paint2_linear_58_437)"/>
<path d="M35.02 89.6204V85.1304C35.02 85.7874 34.586 86.4434 33.718 86.9444C31.982 87.9464 29.167 87.9464 27.431 86.9444C26.589 86.4584 26.16 85.8264 26.134 85.1894V66.1874H35.02V122.153C35.02 124.607 33.031 126.596 30.577 126.596C28.123 126.596 26.134 124.607 26.134 122.153V106.98C26.107 107.656 26.537 108.338 27.431 108.854C29.167 109.856 31.982 109.856 33.718 108.854C34.584 108.354 35.018 107.699 35.02 107.044V107.039V102.548C35.02 103.204 34.586 103.861 33.718 104.362C31.982 105.364 29.167 105.364 27.431 104.362C26.589 103.876 26.16 103.244 26.134 102.607V98.1944C26.107 98.8714 26.537 99.5525 27.431 100.068C29.167 101.07 31.982 101.07 33.718 100.068C34.584 99.5685 35.018 98.9134 35.02 98.2584V98.2534V98.2524V93.7624C35.02 94.4184 34.586 95.0754 33.718 95.5764C31.982 96.5784 29.167 96.5784 27.431 95.5764C26.589 95.0904 26.16 94.4584 26.134 93.8214V89.5594C26.107 90.2364 26.537 90.9174 27.431 91.4334C29.167 92.4354 31.982 92.4354 33.718 91.4334C34.584 90.9334 35.018 90.2784 35.02 89.6234V89.6204Z" fill="url(#paint3_linear_58_437)"/>
<path d="M27.4319 99.8514C29.1679 100.853 31.9828 100.853 33.7188 99.8514C34.5388 99.3774 34.9668 98.7654 35.0118 98.1454C35.0628 98.8384 34.6348 99.5404 33.7188 100.069C31.9828 101.071 29.1679 101.071 27.4319 100.069C26.5159 99.5404 26.0878 98.8384 26.1388 98.1454C26.1838 98.7654 26.6119 99.3784 27.4319 99.8514Z" fill="white"/>
<path d="M27.4319 108.636C29.1679 109.638 31.9828 109.638 33.7188 108.636C34.5388 108.162 34.9668 107.55 35.0118 106.93C35.0628 107.623 34.6348 108.325 33.7188 108.854C31.9828 109.856 29.1679 109.856 27.4319 108.854C26.5159 108.325 26.0878 107.623 26.1388 106.93C26.1838 107.551 26.6119 108.163 27.4319 108.636Z" fill="white"/>
<path opacity="0.48" d="M27.4291 86.9444C29.1651 87.9464 31.9801 87.9464 33.7161 86.9444C34.5841 86.4434 35.0181 85.7864 35.0181 85.1304V89.6204V89.6254C35.0161 90.2804 34.5821 90.9354 33.7161 91.4354C31.9801 92.4374 29.1651 92.4374 27.4291 91.4354C26.5351 90.9194 26.1051 90.2374 26.1321 89.5614V85.1894C26.1581 85.8264 26.5871 86.4584 27.4291 86.9444Z" fill="url(#paint4_linear_58_437)"/>
<path opacity="0.48" d="M27.4291 95.5784C29.1651 96.5804 31.9801 96.5804 33.7161 95.5784C34.5841 95.0774 35.0181 94.4204 35.0181 93.7644V98.2544V98.2594C35.0161 98.9144 34.5821 99.5694 33.7161 100.069C31.9801 101.071 29.1651 101.071 27.4291 100.069C26.5351 99.5534 26.1051 98.8714 26.1321 98.1954V93.8234C26.1581 94.4594 26.5871 95.0924 27.4291 95.5784Z" fill="url(#paint5_linear_58_437)"/>
<path opacity="0.48" d="M27.4291 104.363C29.1651 105.365 31.9801 105.365 33.7161 104.363C34.5841 103.862 35.0181 103.205 35.0181 102.549V107.039V107.04V107.045C35.0161 107.7 34.5821 108.355 33.7161 108.855C31.9801 109.857 29.1651 109.857 27.4291 108.855C26.5351 108.339 26.1051 107.657 26.1321 106.981V102.609C26.1581 103.245 26.5871 103.877 27.4291 104.363Z" fill="url(#paint6_linear_58_437)"/>
<path d="M46.6368 59.2784C46.8418 59.1654 47.0448 59.0484 47.2408 58.9204L49.4138 46.6154L46.6878 30.2814L39.1148 22.0264L31.3148 14.4534L18.8948 9.30344L18.5688 9.17543C17.9798 9.47043 17.4278 9.83244 16.9068 10.2434C13.8018 9.85544 10.6968 9.46744 7.5918 9.07944C8.1138 7.80044 8.7328 6.63144 9.4628 5.60944L7.9758 5.02744L13.5378 1.82344C13.6038 1.78444 13.6698 1.74644 13.7368 1.70844L13.9448 1.58844L13.9568 1.59345C18.7408 -0.986553 25.2508 -0.519555 32.4308 3.62544C47.1128 12.1024 59.0158 32.7174 59.0158 49.6704C59.0158 58.0814 56.0838 64.0064 51.3388 66.8114V66.8144L51.3018 66.8354C51.2478 66.8674 51.1928 66.8984 51.1378 66.9294L45.2328 70.3074L45.5358 68.5924C44.7988 68.6504 44.0398 68.6554 43.2618 68.6074C44.8968 65.7204 47.1088 62.5214 46.6368 59.2784Z" fill="url(#paint7_linear_58_437)"/>
<path d="M5.85986 19.6584C5.85586 19.4294 5.84486 19.1995 5.84486 18.9715C5.84486 15.1285 6.47187 11.8215 7.59087 9.07745C10.6959 9.46545 13.8009 9.85346 16.9059 10.2415C13.9199 12.6005 12.1129 16.8275 12.1129 22.5905C12.1129 35.5465 21.2089 51.3005 32.4289 57.7785C37.9629 60.9735 42.9739 61.3055 46.6369 59.2775C47.1089 62.5205 44.8969 65.7205 43.2589 68.6055C40.7939 68.4555 38.1299 67.7715 35.3369 66.5105L36.2139 67.4975C36.2139 67.4975 25.1569 63.6615 24.9299 63.4145C24.7029 63.1675 11.8279 50.1705 11.8279 50.1705L3.42188 32.0374L5.85986 19.6584Z" fill="url(#paint8_linear_58_437)"/>
<path opacity="0.5" d="M8.49023 25.2844C8.49023 12.3284 17.5862 7.07743 28.8062 13.5554C40.0262 20.0334 49.1222 35.7874 49.1222 48.7434C49.1222 61.6994 40.0262 66.9504 28.8062 60.4724C17.5862 53.9944 8.49023 38.2404 8.49023 25.2844Z" fill="url(#paint9_linear_58_437)"/>
<path opacity="0.48" d="M10.2578 24.3254C10.2578 11.3694 19.3538 6.11844 30.5738 12.5964C41.7938 19.0744 50.8898 34.8284 50.8898 47.7844C50.8898 60.7404 41.7938 65.9915 30.5738 59.5135C19.3538 53.0354 10.2578 37.2814 10.2578 24.3254Z" fill="url(#paint10_linear_58_437)"/>
<path d="M0 22.3424C0 39.2954 11.902 59.9104 26.585 68.3874C41.267 76.8644 53.17 69.9924 53.17 53.0394C53.17 36.0864 41.268 15.4714 26.585 6.99443C11.902 -1.48257 0 5.38843 0 22.3424ZM6.26801 25.9614C6.26801 13.0054 15.364 7.75443 26.584 14.2324C37.804 20.7104 46.9 36.4644 46.9 49.4204C46.9 62.3764 37.804 67.6274 26.584 61.1494C15.364 54.6714 6.26801 38.9174 6.26801 25.9614Z" fill="#BCBEFF"/>
<path d="M0 22.3424C0 39.2954 11.902 59.9104 26.585 68.3874C41.267 76.8644 53.17 69.9924 53.17 53.0394C53.17 36.0864 41.268 15.4714 26.585 6.99443C11.902 -1.48257 0 5.38843 0 22.3424ZM6.26801 25.9614C6.26801 13.0054 15.364 7.75443 26.584 14.2324C37.804 20.7104 46.9 36.4644 46.9 49.4204C46.9 62.3764 37.804 67.6274 26.584 61.1494C15.364 54.6714 6.26801 38.9174 6.26801 25.9614Z" fill="#BCBEFF"/>
<path d="M52.7663 53.4944C52.7663 36.5414 40.8643 15.9264 26.1813 7.44944C17.1443 2.23144 9.16533 2.83644 4.36133 8.02044C9.11333 2.42044 17.2893 1.62844 26.5843 6.99544C41.2663 15.4724 53.1693 36.0874 53.1693 53.0404C53.1693 59.5584 51.4043 64.5785 48.4043 67.8175C51.1593 64.5704 52.7663 59.7144 52.7663 53.4944Z" fill="white"/>
<path d="M26.1812 61.6034C14.9612 55.1254 5.86523 39.3714 5.86523 26.4154C5.86523 21.3964 7.23523 17.5394 9.56023 15.0674C7.48123 17.5474 6.26923 21.2394 6.26923 25.9614C6.26923 38.9174 15.3652 54.6714 26.5852 61.1494C33.4592 65.1174 39.5302 64.6784 43.2072 60.7684C39.5812 65.0944 33.3122 65.7214 26.1812 61.6034Z" fill="white"/>
<defs>
<linearGradient id="paint0_linear_58_437" x1="33.7176" y1="87.806" x2="30.5739" y2="93.2507" gradientUnits="userSpaceOnUse">
<stop stop-color="#5761D7"/>
<stop offset="0.1645" stop-color="#5E67DA"/>
<stop offset="0.4051" stop-color="#727AE2"/>
<stop offset="0.6924" stop-color="#9297EE"/>
<stop offset="1" stop-color="#BCBEFF"/>
</linearGradient>
<linearGradient id="paint1_linear_58_437" x1="33.7177" y1="96.4397" x2="30.574" y2="101.884" gradientUnits="userSpaceOnUse">
<stop stop-color="#5761D7"/>
<stop offset="0.1645" stop-color="#5E67DA"/>
<stop offset="0.4051" stop-color="#727AE2"/>
<stop offset="0.6924" stop-color="#9297EE"/>
<stop offset="1" stop-color="#BCBEFF"/>
</linearGradient>
<linearGradient id="paint2_linear_58_437" x1="33.7178" y1="105.225" x2="30.574" y2="110.669" gradientUnits="userSpaceOnUse">
<stop stop-color="#5761D7"/>
<stop offset="0.1645" stop-color="#5E67DA"/>
<stop offset="0.4051" stop-color="#727AE2"/>
<stop offset="0.6924" stop-color="#9297EE"/>
<stop offset="1" stop-color="#BCBEFF"/>
</linearGradient>
<linearGradient id="paint3_linear_58_437" x1="46.9372" y1="96.3917" x2="22.6405" y2="96.3917" gradientUnits="userSpaceOnUse">
<stop stop-color="#5761D7"/>
<stop offset="0.1645" stop-color="#5E67DA"/>
<stop offset="0.4051" stop-color="#727AE2"/>
<stop offset="0.6924" stop-color="#9297EE"/>
<stop offset="1" stop-color="#BCBEFF"/>
</linearGradient>
<linearGradient id="paint4_linear_58_437" x1="35.0182" y1="88.659" x2="26.1309" y2="88.659" gradientUnits="userSpaceOnUse">
<stop stop-color="#42E8E0"/>
<stop offset="0.1507" stop-color="#43E3E0"/>
<stop offset="0.3285" stop-color="#45D5DF"/>
<stop offset="0.5199" stop-color="#49BDDD"/>
<stop offset="0.7209" stop-color="#4E9CDB"/>
<stop offset="0.9274" stop-color="#5472D8"/>
<stop offset="1" stop-color="#5761D7"/>
</linearGradient>
<linearGradient id="paint5_linear_58_437" x1="35.0182" y1="97.2926" x2="26.1309" y2="97.2926" gradientUnits="userSpaceOnUse">
<stop stop-color="#42E8E0"/>
<stop offset="0.1507" stop-color="#43E3E0"/>
<stop offset="0.3285" stop-color="#45D5DF"/>
<stop offset="0.5199" stop-color="#49BDDD"/>
<stop offset="0.7209" stop-color="#4E9CDB"/>
<stop offset="0.9274" stop-color="#5472D8"/>
<stop offset="1" stop-color="#5761D7"/>
</linearGradient>
<linearGradient id="paint6_linear_58_437" x1="35.018" y1="106.078" x2="26.1309" y2="106.078" gradientUnits="userSpaceOnUse">
<stop stop-color="#42E8E0"/>
<stop offset="0.1507" stop-color="#43E3E0"/>
<stop offset="0.3285" stop-color="#45D5DF"/>
<stop offset="0.5199" stop-color="#49BDDD"/>
<stop offset="0.7209" stop-color="#4E9CDB"/>
<stop offset="0.9274" stop-color="#5472D8"/>
<stop offset="1" stop-color="#5761D7"/>
</linearGradient>
<linearGradient id="paint7_linear_58_437" x1="62.4811" y1="50.6764" x2="5.0462" y2="17.3803" gradientUnits="userSpaceOnUse">
<stop stop-color="#5761D7"/>
<stop offset="0.1645" stop-color="#5E67DA"/>
<stop offset="0.4051" stop-color="#727AE2"/>
<stop offset="0.6924" stop-color="#9297EE"/>
<stop offset="1" stop-color="#BCBEFF"/>
</linearGradient>
<linearGradient id="paint8_linear_58_437" x1="-0.497124" y1="21.1506" x2="51.2128" y2="59.0103" gradientUnits="userSpaceOnUse">
<stop stop-color="#5761D7"/>
<stop offset="0.1645" stop-color="#5E67DA"/>
<stop offset="0.4051" stop-color="#727AE2"/>
<stop offset="0.6924" stop-color="#9297EE"/>
<stop offset="1" stop-color="#BCBEFF"/>
</linearGradient>
<linearGradient id="paint9_linear_58_437" x1="49.1228" y1="37.0142" x2="8.49023" y2="37.0142" gradientUnits="userSpaceOnUse">
<stop stop-color="#42E8E0"/>
<stop offset="0.1507" stop-color="#43E3E0"/>
<stop offset="0.3285" stop-color="#45D5DF"/>
<stop offset="0.5199" stop-color="#49BDDD"/>
<stop offset="0.7209" stop-color="#4E9CDB"/>
<stop offset="0.9274" stop-color="#5472D8"/>
<stop offset="1" stop-color="#5761D7"/>
</linearGradient>
<linearGradient id="paint10_linear_58_437" x1="50.8905" y1="36.055" x2="10.2579" y2="36.055" gradientUnits="userSpaceOnUse">
<stop stop-color="#42E8E0"/>
<stop offset="0.1507" stop-color="#43E3E0"/>
<stop offset="0.3285" stop-color="#45D5DF"/>
<stop offset="0.5199" stop-color="#49BDDD"/>
<stop offset="0.7209" stop-color="#4E9CDB"/>
<stop offset="0.9274" stop-color="#5472D8"/>
<stop offset="1" stop-color="#5761D7"/>
</linearGradient>
</defs>
</svg>
