<svg width="29" height="18" viewBox="0 0 29 18" fill="none" xmlns="http://www.w3.org/2000/svg">
<path opacity="0.7" d="M14.3713 16.4802L0.738281 8.60825L14.3713 0.737244L28.0043 8.60925L14.3713 16.4802Z" fill="#42E8E0"/>
<path d="M14.371 17.2172C14.244 17.2172 14.117 17.1842 14.002 17.1182L0.369003 9.24727C0.141003 9.11527 0 8.87226 0 8.60826C0 8.34426 0.141003 8.10125 0.369003 7.96925L14.002 0.09825C14.231 -0.03275 14.511 -0.03275 14.739 0.09825L28.373 7.96925C28.601 8.10125 28.742 8.34426 28.742 8.60826C28.742 8.87226 28.601 9.11527 28.373 9.24727L14.74 17.1182C14.626 17.1842 14.499 17.2172 14.371 17.2172ZM2.21201 8.60927L14.371 15.6293L26.53 8.60927L14.371 1.58925L2.21201 8.60927Z" fill="#42E8E0"/>
</svg>
