<svg width="54" height="32" viewBox="0 0 54 32" fill="none" xmlns="http://www.w3.org/2000/svg">
<path opacity="0.7" d="M26.7213 30.7422L0.736328 15.7402L26.7203 0.738251L52.7053 15.7402L26.7213 30.7422Z" fill="#42E8E0"/>
<path d="M26.721 31.4803C26.594 31.4803 26.466 31.4473 26.352 31.3813L0.368011 16.3782C0.140011 16.2462 0 16.0032 0 15.7392C0 15.4752 0.141011 15.2323 0.368011 15.1003L26.351 0.09825C26.58 -0.03275 26.861 -0.03275 27.089 0.09825L53.074 15.1013C53.302 15.2333 53.442 15.4762 53.442 15.7402C53.442 16.0042 53.301 16.2473 53.074 16.3793L27.09 31.3813C26.975 31.4463 26.848 31.4803 26.721 31.4803ZM2.211 15.7392L26.721 29.8902L51.231 15.7402L26.72 1.58925L2.211 15.7392Z" fill="#42E8E0"/>
</svg>
