<svg width="54" height="32" viewBox="0 0 54 32" fill="none" xmlns="http://www.w3.org/2000/svg">
<path d="M26.723 31.4803C26.595 31.4803 26.469 31.4472 26.354 31.3812L0.369003 16.3782C0.141003 16.2462 0 16.0032 0 15.7392C0 15.4752 0.141003 15.2322 0.369003 15.1002L26.353 0.09825C26.582 -0.03275 26.862 -0.03275 27.09 0.09825L53.075 15.1012C53.303 15.2332 53.444 15.4762 53.444 15.7402C53.444 16.0042 53.303 16.2472 53.075 16.3792L27.091 31.3812C26.977 31.4472 26.85 31.4803 26.723 31.4803ZM2.213 15.7402L26.723 29.8912L51.232 15.7412L26.722 1.59024L2.213 15.7402Z" fill="#42E8E0"/>
</svg>
