<svg width="332" height="192" viewBox="0 0 332 192" fill="none" xmlns="http://www.w3.org/2000/svg">
<path d="M331.479 191.801C331.428 191.801 331.377 191.788 331.331 191.761L249.66 144.61L199.036 173.838C198.944 173.891 198.831 173.891 198.739 173.838L0.14801 59.1797C0.0570103 59.1267 0 59.0287 0 58.9227C0 58.8167 0.0570103 58.7187 0.14801 58.6657L101.693 0.0386777C101.836 -0.0413223 102.016 0.00667943 102.098 0.146679C102.18 0.288679 102.131 0.469678 101.99 0.551678L0.889008 58.9217L198.887 173.236L249.511 144.008C249.603 143.955 249.716 143.955 249.808 144.008L331.627 191.245C331.769 191.327 331.817 191.509 331.735 191.65C331.681 191.747 331.582 191.801 331.479 191.801Z" fill="#42E8E0"/>
</svg>
